<?xml version="1.0" encoding="iso-8859-1"?>
<!-- Uploaded to: SVG Repo, www.svgrepo.com, Generator: SVG Repo Mixer Tools -->
<svg height="800px" width="800px" version="1.1" id="Capa_1" xmlns="http://www.w3.org/2000/svg" xmlns:xlink="http://www.w3.org/1999/xlink" 
	 viewBox="0 0 25.777 25.777" xml:space="preserve">
<g>
	<path style="fill:#030104;" d="M16.897,10.303c0,1.139-0.923,2.062-2.062,2.062s-2.062-0.923-2.062-2.062s0.923-2.062,2.062-2.062
		C15.974,8.241,16.897,9.164,16.897,10.303z M25.777,8.033c-1.768,1.369-3.6,3.151-5.146,9.401s-6.796,8.336-6.796,8.336h-1.729
		c0.005-0.006,0.009-0.012,0.014-0.018c-2.745-0.041-2.065-5.569-5.379-8.884c-0.095-0.024-0.191-0.047-0.271-0.077
		c-0.758-0.286-1.269-0.903-1.584-1.427c-1.121,0.5-2.732,0.733-3.879-0.595c-1.215-1.402-0.603-3.057,0.133-4.086
		C0.346,9.679-0.395,8.125,0.39,6.806c0.386-0.651,0.998-0.992,1.671-1.14C1.712,4.811,1.094,3.549,0,2.777
		c1.594-0.522,3.891,0.747,4.631,1.672c0.284-0.434,0.666-0.816,1.181-1C5.92,3.41,6.03,3.382,6.141,3.362
		c0.421-0.893,1.048-1.311,1.527-1.504c0.889-0.359,1.829-0.21,2.458-0.022c0.525-0.813,1.615-2.034,3.385-1.8
		c1.527,0.197,2.257,1.288,2.544,2.217c1.504-0.043,2.626,0.563,3.06,1.651c0.067,0.04,0.137,0.073,0.202,0.117
		c1.563,1.064,1.639,2.864,1.292,4.303c0.312,0.266,0.612,0.586,0.874,0.945C22.599,8.428,24.128,7.868,25.777,8.033z M18.693,8.96
		c0,0,1.256-2.575-0.277-3.619c-0.331-0.224-0.683-0.313-1.032-0.313c-1.27,0-2.497,1.167-2.497,1.167S13.564,5.03,12.328,5.03
		c-0.338,0-0.67,0.088-0.967,0.311C9.982,6.378,11.084,8.96,11.084,8.96s-2.576,1.076-1.902,3.09
		c0.414,1.237,1.586,1.475,2.428,1.475c0.528,0,0.926-0.094,0.926-0.094s0.399,2.765,2.352,2.765c1.956,0,2.352-2.765,2.352-2.765
		s0.389,0.078,0.906,0.078c0.883,0,2.134-0.228,2.449-1.459C21.095,10.095,18.693,8.96,18.693,8.96z M11.792,19.661
		c0.127,0.425,0.302,1.019,0.469,1.67c0.037-1.939-0.145-4.299-0.95-6.215c-1.806-0.092-3.128-1.011-3.645-2.557
		c-0.05-0.15-0.076-0.296-0.107-0.442c-0.258,0.111-0.549,0.179-0.877,0.176c-1.139,0-2.062-0.922-2.062-2.061
		S5.543,8.17,6.682,8.17c0.503,0,0.967,0.175,1.321,0.479c0.138,0.118,0.25,0.25,0.349,0.386c0.247-0.302,0.532-0.577,0.845-0.816
		C8.944,6.971,8.919,5.177,10.4,4.063c0.549-0.413,1.216-0.631,1.929-0.631c0.959,0,1.862,0.39,2.533,0.787
		c0.167-0.103,0.351-0.204,0.546-0.298c-0.001,0-0.001,0-0.002,0c-0.427,0-0.779-0.334-0.799-0.762
		c-0.009-0.136-0.121-1.384-1.303-1.536c-1.348-0.172-2.068,1.497-2.075,1.513c-0.085,0.205-0.251,0.365-0.459,0.443
		c-0.208,0.079-0.438,0.065-0.637-0.034C9.837,3.399,8.917,3.077,8.261,3.344c-0.19,0.077-0.348,0.208-0.483,0.385
		C8.066,3.896,8.36,4.111,8.659,4.385c0.325,0.299,0.347,0.805,0.048,1.13c-0.299,0.326-0.805,0.347-1.13,0.049
		C7.056,5.086,6.61,4.862,6.35,4.955C5.918,5.109,5.551,6.113,5.452,6.779C5.418,7.014,5.28,7.222,5.077,7.346
		c-0.203,0.123-0.452,0.15-0.675,0.075C3.959,7.27,2.215,6.864,1.764,7.624c-0.455,0.764,0.591,2.075,0.993,2.474
		c0.151,0.15,0.236,0.354,0.237,0.566c0,0.213-0.083,0.417-0.233,0.568c-0.057,0.058-1.427,1.472-0.544,2.49
		c0.892,1.035,2.491-0.077,2.559-0.124c0.207-0.146,0.471-0.187,0.712-0.106c0.24,0.079,0.43,0.266,0.51,0.506
		c0.092,0.269,0.483,1.089,1.042,1.298c0.105,0.041,0.426,0.16,1.022-0.187c0.309-0.182,0.681-0.121,0.932,0.107
		C10.786,16.067,11.284,17.966,11.792,19.661z M16.814,17.214c-0.36,0.243-0.769,0.431-1.244,0.52
		c-0.049,1.26-0.544,3.024-1.107,4.763C15.287,21.156,16.095,19.495,16.814,17.214z M12.105,25.771l0.001-0.001L12.105,25.771
		L12.105,25.771z"/>
</g>
</svg>