<svg xmlns="http://www.w3.org/2000/svg" width="472" height="404" fill="none">
    <g filter="url(#a)">
        <path fill="#c4b3ff"
            d="M364.818 23.916c-89.371-18.846-127.892 70.25-127.892 70.25S202.205 4.799 112.048 22.99C21.888 41.186-69.164 190.327 231.01 371.783 538.876 192.559 454.189 42.771 364.818 23.916Z" />
        <path stroke="#fff" stroke-width="20"
            d="M366.882 14.131h-.001c-48.764-10.283-83.953 9.089-106.439 30.62-10.201 9.769-17.856 20.017-23.158 28.242-4.962-8.25-12.161-18.494-21.896-28.287-21.695-21.824-56.163-41.437-105.317-31.519h-.001c-49.095 9.909-98.714 55.504-94.9 123.537 3.775 67.359 59.792 152.414 210.667 243.617l5.077 3.069 5.127-2.985c154.677-90.045 214.157-174.551 220.788-241.732 6.72-68.074-41.091-114.255-89.947-124.562Z" />
    </g>
    <defs>
        <filter id="a" width="470.506" height="402.501" x=".961" y=".536" color-interpolation-filters="sRGB"
            filterUnits="userSpaceOnUse">
            <feFlood flood-opacity="0" result="BackgroundImageFix" />
            <feColorMatrix in="SourceAlpha" result="hardAlpha" values="0 0 0 0 0 0 0 0 0 0 0 0 0 0 0 0 0 0 127 0" />
            <feOffset dy="4" />
            <feGaussianBlur stdDeviation="2" />
            <feComposite in2="hardAlpha" operator="out" />
            <feColorMatrix values="0 0 0 0 0.498039 0 0 0 0 0.552941 0 0 0 0 0.454902 0 0 0 0.1 0" />
            <feBlend in2="BackgroundImageFix" result="effect1_dropShadow_4822_3265" />
            <feBlend in="SourceGraphic" in2="effect1_dropShadow_4822_3265" result="shape" />
        </filter>
    </defs>
</svg>