<?xml version="1.0" encoding="iso-8859-1"?>
<!-- Uploaded to: SVG Repo, www.svgrepo.com, Generator: SVG Repo Mixer Tools -->
<!DOCTYPE svg PUBLIC "-//W3C//DTD SVG 1.1//EN" "http://www.w3.org/Graphics/SVG/1.1/DTD/svg11.dtd">
<svg fill="#000000" height="800px" width="800px" version="1.1" id="Capa_1" xmlns="http://www.w3.org/2000/svg" xmlns:xlink="http://www.w3.org/1999/xlink" 
	 viewBox="0 0 292.503 292.503" xml:space="preserve">
<path d="M160.867,186.594c-16.224,7.544-18.195,27.102-9.863,40.031c-0.14,0.085-0.25,0.124-0.389,0.214
	c-4.27,2.409-6.632,4.572-9.007,7.181c-0.07-0.304-6.059-20.635-15.298-35.642c-13.375-21.724-8.669-50.405-0.07-74.219
	c1.773,9.45,10.043,16.617,20.006,16.617c11.256,0,20.384-9.127,20.384-20.384v-0.787l0.547,0.547
	c3.982,3.982,9.197,5.973,14.412,5.973c5.216,0,10.431-1.99,14.413-5.967c7.962-7.962,7.962-20.866,0-28.829l-0.559-0.552h0.807
	c11.257,0,20.384-9.126,20.384-20.384c0-11.256-9.127-20.384-20.384-20.384h-0.786l0.557-0.557c7.964-7.962,7.964-20.867,0-28.829
	c-7.962-7.962-20.861-7.957-28.823-0.005l-0.567,0.567v-0.801C166.63,9.126,157.502,0,146.246,0
	c-11.257,0-20.384,9.126-20.384,20.384v0.796l-0.577-0.577c-7.963-7.962-20.862-7.957-28.823-0.005
	c-7.963,7.963-7.963,20.867,0,28.829l0.566,0.572h-0.776c-11.256,0-20.383,9.127-20.383,20.384s9.127,20.384,20.383,20.384h0.776
	l-0.558,0.557c-7.962,7.963-7.962,20.867,0,28.829c6.142,6.142,15.896,8.098,24.455,3.23c-14.141,25.791-21.596,55.434-9.425,81.814
	c15.879,34.419,12.719,48.959,12.719,48.959l-5.474-3.061c4.11-9.063,1.313-21.295-9.674-24.957
	c-14.185-3.693-20.335-10.831-23.001-16.325c-0.439-0.904-1.391-1.444-2.393-1.358c-1.001,0.086-1.846,0.782-2.123,1.748
	c-2.878,10.025-6.794,27.198-3.109,36.488c4.787,12.098,15.428,17.417,26.066,15.108c-13.464-7.709-15.108-21.536-15.294-26.167
	c-0.007-0.193,0.118-0.366,0.304-0.419c0.186-0.053,0.418,0.012,0.479,0.196c8.529,25.881,33.555,29.714,36.197,32.234
	c1.673,11.403,3.062,18.434,4.13,22.768c0.289,1.171,1.307,2.017,2.51,2.089c1.204,0.071,2.313-0.65,2.739-1.778
	c3.223-8.534,8.145-23.958,8.001-38.244c4.184-5.153,7.495-8.346,14.134-14.984c3.318-3.92,23.296-13.054,33.267-40.009
	c0.078-0.211,0.297-0.333,0.517-0.287c0.22,0.046,0.374,0.244,0.362,0.468c-1.47,27.865-19.123,40.995-19.614,41.61
	c16.989,2.484,32.886-7.414,38.18-27.026c4.04-14.955-5.334-40.99-11.377-55.377c-0.526-1.253-1.777-2.045-3.135-1.985
	c-1.356,0.06-2.534,0.96-2.947,2.254C190.16,165.933,182.334,178.312,160.867,186.594z M120.199,70.387
	c0-14.377,11.664-26.032,26.037-26.032c14.392,0,26.036,11.655,26.036,26.032c0,14.382-11.644,26.037-26.036,26.037
	C131.863,96.424,120.199,84.77,120.199,70.387z"/>
</svg>