<?xml version="1.0" encoding="iso-8859-1"?>
<!-- Uploaded to: SVG Repo, www.svgrepo.com, Generator: SVG Repo Mixer Tools -->
<!DOCTYPE svg PUBLIC "-//W3C//DTD SVG 1.1//EN" "http://www.w3.org/Graphics/SVG/1.1/DTD/svg11.dtd">
<svg fill="#000000" height="800px" width="800px" version="1.1" id="Capa_1" xmlns="http://www.w3.org/2000/svg" xmlns:xlink="http://www.w3.org/1999/xlink" 
	 viewBox="0 0 487.514 487.514" xml:space="preserve">
<g id="XMLID_21_">
	<path id="XMLID_22_" d="M219.936,275.694c-0.669-3.86-1.011-7.809-1.011-11.805c0-18.341,7.132-35.574,20.1-48.527
		c12.959-12.967,30.194-20.1,48.526-20.1c3.996,0,7.944,0.334,11.805,1.002c7.172-10.156,17.09-18.197,28.594-23.259
		c-6.52-16.908-22.822-28.952-42.022-28.952c-4.459,0-11.782,1.472-20.712,3.837c7.983-4.625,14.201-8.765,17.344-11.909
		c17.633-17.64,17.649-46.249,0.016-63.858c-17.608-17.632-46.21-17.624-63.842,0c-3.145,3.145-7.268,9.346-11.893,17.306
		c2.356-8.884,3.821-16.175,3.821-20.617c0-24.932-20.212-45.143-45.143-45.143c-24.931,0-45.143,20.211-45.143,45.143
		c0,4.442,1.465,11.725,3.813,20.594c-4.609-7.929-8.725-14.122-11.869-17.258c-17.632-17.632-46.218-17.632-63.85,0
		c-17.632,17.624-17.632,46.21,0.023,63.842c3.137,3.144,9.338,7.268,17.29,11.885c-8.899-2.357-16.191-3.821-20.641-3.821
		C20.203,144.054,0,164.258,0,189.196c-0.016,24.932,20.203,45.136,45.143,45.127c4.442,0,11.733-1.464,20.617-3.813
		c-7.944,4.609-14.129,8.725-17.266,11.87c-17.656,17.631-17.656,46.216,0,63.85c17.608,17.64,46.194,17.623,63.826-0.008
		c3.144-3.145,7.268-9.346,11.893-17.307c-2.364,8.908-3.837,16.225-3.837,20.682c0,24.932,20.211,45.142,45.143,45.142
		c10.054,0,19.248-3.399,26.748-8.955c-0.941-4.562-1.474-9.242-1.466-14.003C190.801,308.633,202.327,288.128,219.936,275.694z
		 M121.061,189.212c0-24.581,19.909-44.49,44.483-44.49c24.565,0,44.474,19.909,44.474,44.49c0,24.559-19.909,44.468-44.474,44.468
		C140.969,233.68,121.061,213.771,121.061,189.212z"/>
	<path id="XMLID_25_" d="M451.501,295.77c-3.565,0-9.488,1.21-16.621,3.104c6.384-3.702,11.423-7.03,13.939-9.537
		c14.066-14.074,14.081-36.897,0.008-50.938c-7.029-7.037-16.239-10.555-25.458-10.555c-9.218,0-18.435,3.518-25.473,10.555
		c-2.516,2.507-5.843,7.555-9.536,13.931c1.886-7.116,3.096-13.023,3.096-16.574c0-19.893-16.12-36.021-36.013-36.021
		c-19.885,0-36.011,16.128-36.011,36.021c0,3.543,1.21,9.441,3.088,16.543c-3.678-6.353-6.997-11.376-9.505-13.883
		c-7.036-7.03-16.255-10.548-25.473-10.548c-9.21,0-18.437,3.518-25.465,10.548c-14.066,14.058-14.066,36.864,0.016,50.93
		c2.507,2.507,7.539,5.827,13.898,9.521c-7.108-1.895-13.015-3.096-16.565-3.096c-19.901,0-36.021,16.119-36.021,36.011
		c-0.017,19.894,16.12,36.004,36.021,36.004c3.55,0,9.457-1.21,16.565-3.096c-6.359,3.686-11.391,7.013-13.898,9.521
		c-14.083,14.066-14.083,36.872,0,50.938c7.02,7.028,16.231,10.548,25.449,10.548c9.217,0,18.437-3.52,25.473-10.556
		c2.508-2.508,5.827-7.547,9.521-13.906c-1.895,7.124-3.104,13.039-3.104,16.596c0,19.894,16.126,36.013,36.011,36.013
		c19.892,0,36.013-16.119,36.013-36.013c0-3.565-1.21-9.488-3.112-16.637c3.703,6.393,7.036,11.448,9.552,13.963
		c7.038,7.028,16.264,10.548,25.481,10.548c9.22,0,18.429-3.512,25.45-10.54c14.073-14.066,14.058-36.873,0-50.932
		c-2.515-2.516-7.571-5.849-13.963-9.56c7.141,1.902,13.063,3.112,16.621,3.112c19.902,0,36.045-16.127,36.029-36.004
		C487.514,311.889,471.387,295.77,451.501,295.77z M355.46,364.635c-18.134,0-32.836-14.711-32.836-32.845
		c0-18.134,14.702-32.835,32.836-32.835c18.142,0,32.845,14.702,32.845,32.835C388.305,349.923,373.602,364.635,355.46,364.635z"/>
</g>
</svg>