<?xml version="1.0" encoding="UTF-8"?><svg id="a" xmlns="http://www.w3.org/2000/svg" viewBox="0 0 800 600.7"><path d="M417.24,492.17c4.57-7.61,9.02-16.38,14.74-24.23,11.08-15.22,25.84-25.45,44.95-27.28,24.9-2.38,47.62,8.21,60.36,31.42,8.18,14.91,10.39,30.88,7.08,47.58-.08,.39-.3,.76-.61,1.52-.95-5.48-1.48-10.62-2.76-15.56-4.65-17.93-13.42-33.27-29.34-43.58-19.43-12.58-45.75-11.08-65.62,3.42-10.74,7.84-18.19,18.21-23.29,30.38-.11,.27-.08,.6-.02,.08,3.95-5.45,8.04-11.63,12.68-17.37,3.74-4.63,8.58-8.05,14.29-10.17,11.07-4.11,21.18,.25,25.66,11.18,4.69,11.46-.07,28.27-10.08,35.61-4.59,3.37-10.53,3.79-14.73,1.06-4.43-2.88-6.54-8.02-5.35-13.02,1.33-5.58,4.69-7.78,10.94-7.17,3.8,.37,5.46-.54,6.32-4,.98-3.96,.71-7.86-2.42-10.89-3.04-2.94-6.75-3.2-10.59-1.86-7.23,2.52-11.94,8-16.08,14.06-6.54,9.57-9.99,20.55-14.38,31.14-5.03,12.11-10.93,23.85-16.53,35.71-.88,1.86-2.21,3.52-3.34,5.27-.39,.07-.77,.15-1.16,.22-3.67-7.92-7.57-15.74-10.94-23.78-2.27-5.42-3.63-11.21-5.66-16.74-5.16-14.12-12.83-26.48-25.88-34.68-5.75-3.61-11.96-5.01-18.31-1.38-5.24,3-6.72,9.93-3.09,14.42,.69,.85,2.38,1.74,3.25,1.47,6.72-2.08,9.95,5.34,8.39,10.63-2.2,7.45-11.45,10.57-17.98,5.97-5.87-4.13-8.57-10.24-9.57-17-1.16-7.83-.02-15.39,4.87-21.95,6.37-8.55,16.52-11.41,27.22-7.63,11.66,4.12,19.33,12.81,25.71,22.9,.63,.99,1.19,2.02,2.48,2.88-.4-4.7-.74-9.41-1.2-14.1-3.63-36.77-18.11-69.48-37.42-100.43-8.78-14.07-17.28-28.33-25.88-42.51-.63-1.04-1.22-2.13-1.68-3.26-2.29-5.57-5.13-10.15-11.13-13.1-6.78-3.33-10.39-9.96-9.99-17.69,.52-10.11,1.69-20.18,2.8-30.25,.2-1.84,1.44-3.57,2.2-5.34h.97c.68,1.42,1.41,2.83,2.02,4.28,1.77,4.2,3.43,8.44,5.24,12.63,2.39,5.54,6.72,8.36,12.69,7.89,3.76-.3,5.72,1.49,6.75,4.53,1.17,3.45,2.19,7.01,2.75,10.61,1,6.47,1.59,13,2.37,19.6h-10.94c.19,.55,.31,1.26,.67,1.83,10.38,16.24,20.53,32.64,31.28,48.63,6.68,9.94,15.94,17.37,26.26,23.46,8.18,4.82,16.23,9.82,22.26,17.61,3.64-3.97,5.12-7.89,3.79-13.49-4.15-17.36-10.36-34.02-16.17-50.84-9.15-26.49-12.26-53.75-9.99-81.7,1.98-24.31,7.72-47.85,13.89-71.33,.25-.97,.47-1.95,.77-2.9,1.44-4.65,2.29-8.48-2.99-12.19-5.32-3.73-5.99-10.24-3.38-16.11,3.8-8.51,6.1-17.37,8.02-26.42,.49-2.31,2.22-4.36,3.38-6.53,1.41,1.77,3.09,3.39,4.18,5.33,2.5,4.46,4.55,9.17,7.12,13.59,1.19,2.04,2.82,4.39,4.83,5.29,6.56,2.94,8.19,10.32,6.8,16.85-1.63,7.68-6.16,13.64-12.67,17.33-7.2,4.08-10.09,9.83-11.61,17.64-4.58,23.54-8.83,47.07-9.53,71.12-.59,20.22,2,40.03,7.37,59.49,5.53,20.03,11.21,40.02,16.86,60.16,1.64-1.71,3.53-3.79,5.52-5.75,7.23-7.12,15.05-13.74,21.58-21.45,5.86-6.92,10.26-15.08,15.43-22.6,5.62-8.16,11.39-16.22,17.27-24.58-5.21-4.72-7.96-10.33-8.31-17.12-.57-11.33,2.46-21.44,10.17-29.86,3.98-4.35,8.26-8.46,12.64-12.41,1.72-1.55,4.1-2.37,6.17-3.53l.75,.7c-.42,1.54-.89,3.06-1.27,4.61-1.27,5.16-2.94,10.28-3.6,15.53-.35,2.77,.22,6.41,1.84,8.56,6.59,8.71,1.88,23.84-7.18,30.25-1.43,1.01-2.45,2.71-3.41,4.25-6.39,10.31-12.44,20.85-19.12,30.98-14.58,22.1-26.36,45.42-32.79,71.25-3.94,15.85-5.78,31.99-7.05,48.23-.15,1.88-.4,3.75-.5,4.64Zm-17.71-58.75c-12.58,38.1-17.47,76.06,.91,113.81,.71-1.27,1.04-2.53,1.25-3.82,3.71-23.13,5.77-46.42,6.36-69.83,.18-7.09-.16-14.27-1.17-21.28-.95-6.66-3.02-13.18-7.36-18.88Zm-15.67,53.67c.16-.32,.31-.5,.33-.69,.24-2.44,.47-4.88,.68-7.33,1.45-16.71,4.63-32.99,11.44-48.44,.45-1.03,.29-2.85-.35-3.76-3.57-5.11-8.39-8.8-13.82-11.85-8.09-4.55-16.03-9.36-23.43-13.7,13.86,26.17,21.33,55.37,25.14,85.77Zm49.07-95.56c-2.82,2.69-6.24,5.73-9.39,9.02-4.31,4.5-8.54,9.08-12.52,13.86-.96,1.16-1.28,3.29-1.1,4.88,.92,8.5,2.14,16.98,3.15,25.47,.48,4.07,.73,8.17,1.05,11.85,2.31-10.94,4.05-22.29,7.21-33.22,3.19-11.01,7.8-21.61,11.59-31.87Zm-27.91,44.7c.27-.04,.54-.09,.81-.13-.55-4.02-1.09-8.05-1.67-12.32-5.64,5.05,.24,8.43,.86,12.45Z"/><path d="M372.21,471.77c-4.46-7.24-9.53-13.82-15.93-19.33-8.93-7.69-19.55-11.2-31.04-12.7-10.15-1.33-20.35-2.46-30.39-4.38-16.45-3.14-28.52-13.01-37.91-26.44-4.02-5.75-7.77-11.68-11.65-17.52-5.58-8.41-11.63-16.36-20.88-21.9,6.2-4.01,12.66-6.44,19.42-8.1,19.58-4.83,37.78-1,54.81,9.19,22.86,13.67,39.76,33.17,53.5,55.61,8.39,13.71,15.37,28.1,19.64,43.69,.17,.62,.3,1.26,.45,1.89Zm-110.29-97.44c8.32,16.64,20.43,27.77,37.66,33.38,14.6,4.75,29.97,7.54,43.42,15.97-5.61-6.81-11.36-13.44-17.64-19.52-10.39-10.05-21.74-18.84-35.23-24.48-8.82-3.69-18.03-5.37-28.2-5.34Z"/><path d="M426.54,450.43c5.69-19.49,13.99-37.7,25.76-54.25,9.46-13.3,20.32-25.24,34.49-33.62,21.65-12.8,43.65-14.15,65.78-1.01,.76,.45,1.49,.98,2.21,1.5,.16,.12,.22,.37,.44,.77-10.19,5.89-16.22,15.62-22.69,24.94-7.22,10.4-15.44,19.66-27.49,24.63-8.54,3.53-17.65,4.43-26.7,5.62-12.28,1.6-24.56,3.24-34.84,11.17-6.17,4.76-11.25,10.46-15.11,17.23-.58,1.02-1.23,2.01-1.85,3.01Zm30.62-51.16c8.8-1.91,17.63-4.05,26.55-5.7,14.03-2.59,25.99-8.45,34.4-20.4,1.5-2.13,2.9-4.31,4.68-6.96-29.44-2.22-47.92,15.13-65.63,33.06Z"/><path d="M294.85,232.96c-3.87,1.45-5-.34-5.72-3.66-2.42-11.09-8.48-21.71-15.85-28.05,5.86,9.85,10.85,20.03,12.34,31.73-2.03,.52-4.04,1.03-6.33,1.61-3.93-11.91-9.01-23.08-21.86-28.39,.54,1,1.04,2.04,1.64,3,5.3,8.46,9.93,17.21,10.87,27.36,.13,1.37-.66,3.05-1.49,4.25-2.99,4.33-6.18,8.52-9.34,12.81-5.75-11.58-12.36-23.39-17.56-35.8-4.72-11.26-4.1-23.35-1.85-35.26,.06-.3,.33-.55,.72-1.18,6.77,5.55,14.8,5.2,22.84,5.06,17.9-.32,27.14,7.01,31.16,24.55,1.66,7.26,1.96,14.55,.45,21.95Z"/><path d="M369.87,116.72c-3.38-8.53-7.3-16.6-9.77-25.09-4.86-16.63-.64-31.68,9.79-45.18,1-1.29,2.23-2.4,3.7-3.95,.6,1.58,.98,2.69,1.43,3.77,1.94,4.65,5.06,8.06,9.99,9.64,2.86,.91,5.71,1.84,8.5,2.93,8.9,3.48,13.56,10.32,13.39,19.61-.15,8.39-1.6,16.75-2.51,25.43-1.81-.57-2.83-1.03-3.88-1.19-2.19-.34-2.72-1.61-2.86-3.69-.62-8.81-3.78-16.79-8.41-24.86,1.83,9.42,3.55,18.26,5.28,27.16-3.5,1.05-6.09,1.82-8.85,2.65,.28-11.03-3.16-20.49-12.08-27.78,.76,5.07,1.85,10.12,2.19,15.22,.47,7.1,.44,14.23,.44,21.35,0,.79-1.03,1.82-1.84,2.3-1.22,.71-2.67,1.02-4.5,1.67Z"/><path d="M527.83,173.55c3.9,4.63,5.15,9.88,5.74,15.16,2.32,20.89-4.76,38.68-18.42,54.18-3.22-1.85-4.29-4.2-2.9-7.78,3.37-8.7,6.52-17.48,9.75-26.23,.33-.9,.67-1.8,1.07-2.87-7.18,2.23-14.56,13.26-18.7,27.69h-11.1c.9-12.64,6.25-23.91,12.76-34.78-10.4,8.53-16,19.59-17.4,32.95h-6.69c-.48-14,.34-27.63,9.14-39.41,3.98-5.32,9.42-8.03,16.12-8.06,1,0,2.02-.11,3.01-.03,8.23,.63,14.42-2.21,17.62-10.8Z"/><path d="M365.22,113.08c-7.2-4.8-14.34-9.57-21.47-14.34l-.89,1.13c8.95,6.06,16.72,13.16,21.31,24.13-9.12-5.51-17.63-10.91-28.19-11.19,11.18,5.85,19.98,14.11,26.82,25.58-7.46,0-14.36,.57-21.13-.13-11.3-1.17-19.11-7.86-24.45-17.61-1.44-2.63-2.66-5.38-4.03-8.06-4.1-8-7.24-10.43-16.12-12.95,3.64-1.97,7.14-4.3,10.95-5.86,11.23-4.58,22.82-5.7,34.67-2.59,11.68,3.07,18.74,10.88,22.54,21.89Z"/><path d="M495.68,278.17c9.82,6.63,18.68,12.61,27.53,18.58-4.53-9.29-13.16-14.26-21-20.21,11.57-.03,21.77,4.5,31.86,9.46-8.05-7.35-17.81-10.6-28.98-12,6.29-3.56,12.51-4.41,19.03-3.44,20.1,2.98,30.69,16.14,36.21,34.39,1.49,4.94,1.99,10.18,2.95,15.29l-.97,.35c-.46-.49-.99-.93-1.37-1.48-7.54-10.77-16.92-14.32-29.9-11.83-6.2,1.19-12.52,2.21-18.81,2.34-6.16,.13-11.68-2.49-16.2-6.87-2.79-2.7-4.6-5.93-3.87-9.86,.88-4.72,2.23-9.36,3.54-14.72Z"/><path d="M435.15,177.5c2.23,4.49,6.3,5.76,10.42,6.88,2.03,.55,4.11,.99,6.18,1.35,14.36,2.49,21.91,14.78,22.88,27.6,.47,6.22,.4,12.49-2.64,19.17-3.07-11.1-8.8-19.5-18.95-24.49,6.37,13.99,12.57,27.94,11.13,44.34-6.75-4.9-13.19-9.3-19.31-14.09-8.16-6.39-12.22-14.99-11.78-25.37,.5-11.81,1.36-23.6,2.06-35.39Z"/><path d="M578.5,231.18c-3.76,13.75-11.07,24.22-21.8,31.93-10.34,7.42-22.05,7.94-34.2,4.18,4.5-8.57,11.56-14.5,18.82-20.33-10.26,2.47-18.26,8.46-25.17,16.11,1.51-13.07,6.11-24.41,17.1-32.57,8.62-6.4,22.07-8.14,30.44,0,2.85,2.77,6.44,2.7,10.06,1.93,1.29-.28,2.55-.67,4.77-1.27Z"/><path d="M421.12,125.72c.08-9.49,3.93-17.87,9.92-25.47l-.75-.8c-2.72,2.39-5.72,4.54-8.09,7.24-2.45,2.79-4.3,6.11-6.67,9.58-2.37-8.65-.77-16.63,2.16-24.52l-.9-.33c-2.41,5.1-4.83,10.2-7.28,15.38-2.71-12.4,4.33-30.36,17.52-33.56,2.81-.68,6.02-.71,8.85-.12,8.34,1.74,12.24,.37,17.01-6.77,.42-.63,.85-1.24,1.28-1.86l1.03,.05c.22,6.48,.74,12.97,.57,19.44-.13,4.86-.82,9.78-1.86,14.54-2.13,9.74-8.33,16.25-17.31,20.25-5.13,2.29-10.25,4.59-15.46,6.93Z"/><path d="M376.29,148.91c-9.69-.27-17.93,.89-23.45,10.1,11.91-2.67,23.71-.64,34.46-5.69,2.03,14.21-9.07,28.02-23.14,28.41-5.63,.16-11.33-.63-16.93-1.46-8.39-1.24-16.43-.96-23.93,3.49-.26,.16-.63,.12-1.23,.23,1.54-13.32,5.61-25.35,16.05-34.24,10.34-8.8,25.89-9.21,38.17-.85Z"/><path d="M407.56,278.43c6.92-13.75,15.83-24.94,31.39-28.58,12.29-2.87,27.05,6,30.68,18.59-7.91-5.33-15.68-9.91-25.66-3.18,11.65,3.47,21.31,10.31,33.34,11.28-.12,.56-.09,1.24-.39,1.71-4.61,7.19-10.5,12.65-19.23,14.36-4.38,.85-8.45-.18-12.27-2.09-2.97-1.49-5.87-3.22-8.54-5.2-8.73-6.45-17.75-11.39-29.32-6.9Z"/><path d="M478.36,153.23c-4.46-1.19-9.02-2.9-13.72-3.54-6.39-.87-12.01,1.62-16.9,5.74-2.05,1.72-4.06,3.5-6.2,5.09-11.98,8.91-25.87,5.95-33.19-7.06-1.09-1.93-2.02-3.95-3.22-6.3,11.84-4.19,24.29-4.22,36.17-7.21-10.22-4.08-20.35-2.23-31.04,.72,6.62-9.42,15.02-14.76,25.94-15.83,9.21-.9,17.37,1.76,24.56,7.56,7.35,5.93,13.54,12.79,17.6,20.82Z"/><path d="M229.81,325.05c-3.67-12.95,2.02-30.68,12.3-38.95,9.15-7.36,23.78-8.37,34.93-2.4-2.59,1.55-5.26,2.98-7.74,4.68-2.46,1.68-4.73,3.62-7.09,5.44l1.35,1.82c7.95-2.49,15.91-4.99,23.94-7.51,3.31,7.32-.41,20.71-10.18,25.35-6.21,2.95-12.51,2.41-18.97,1.41-2.96-.46-5.98-.65-8.98-.72-7.58-.18-13.57,2.92-17.99,9.09-.43,.6-.97,1.11-1.57,1.79Z"/><path d="M304.47,280.98c10.16-1.94,18.85-6.87,27.24-13.34-8.13-4.8-13.95,.15-20.01,3.92-1.17-8.48,7.21-19.13,16.17-20.71,15.99-2.82,26.41,2.04,34.06,16.38,2.57,4.81,4.27,10.08,6.37,15.15l-1.09,.62c-1.52-1.04-3.03-2.08-4.55-3.12-5.88-4-10.55-4-16.21,.41-3.6,2.8-6.84,6.06-10.39,8.93-4.96,4-10.58,6.09-17.07,5.08-5.97-.93-12.2-6.59-14.52-13.32Z"/><path d="M311.61,252.87c-.91-14.09,2.49-27.52,7.72-40.84-7.48,2.13-14.15,11.65-16.5,23.11-2.31-.47-3.2-1.82-3.13-4.18,.18-6.13-.41-12.34,.41-18.37,1.92-14.14,9.66-22.04,23.78-25.36,2.48-.58,4.97-1.13,7.61-1.72-.62,7.34,1.45,14.1,4.36,20.64,6.69,15.01,1.29,26.47-9.7,35.01-4.88,3.79-9.63,7.74-14.55,11.71Z"/><path d="M256.77,274.72c-5.6,1.19-10.68,2.24-15.75,3.37-7.93,1.76-15.33,.52-21.93-4.22-9.34-6.71-16.2-15.69-23.01-25.82,2.34,.84,3.84,1.46,5.39,1.93,6.09,1.83,10.99-.11,15.48-4.4,6.89-6.57,14.93-9.22,24.2-5.51,8.85,3.55,16.81,16.08,16.3,25.29-5.38-5.17-10.77-10.35-16.15-15.53l-.65,.59c5.39,8.13,10.79,16.26,16.12,24.3Z"/><path d="M436.9,297.62c19.19,26.52,12.83,70.08-16.53,87.01,.95-7.02-2.06-12.86-4.35-18.97-5.2-13.88-2.47-26.99,5.02-39.25,3.19-5.21,7.09-9.98,10.71-14.92,2.86-3.9,5.53-7.87,5.14-13.88Zm-9.11,71.72l1.26,.09c8.31-8.1,12.84-26.74,6.7-38.39-4.64,3.66-7.5,8.45-7.83,14.14-.47,8.03-.12,16.11-.12,24.16Z"/><path d="M353.92,306.44c.37,6.53,3.81,11.06,7.37,15.51,6.79,8.47,13.21,17.12,15.98,27.91,2.27,8.82,2.06,17.44-1.71,25.82-2.33,5.18-3.81,10.46-2.71,16.23-6.93-1.27-19.83-14.9-24.89-28.61-6.91-18.74-4.66-43.37,5.96-56.86Zm10.06,71.67c.58-13.69,4.77-27.67-7.48-38.61-4.95,10.27-1,30.91,7.48,38.61Z"/><path d="M290.55,237.86c9.55,.35,12.13,2.27,14.1,10.74,1.36,5.84,2.55,11.78-.47,17.59-1.13,2.18-2.55,2.97-5.09,2.46-6.99-1.41-9.78,.38-11.36,7.17-.42,1.82-1.15,2.41-2.96,2.12-2.85-.46-5.8-.46-8.57-1.19-7.03-1.86-11.67-7.73-11.83-14.81-.14-6.22,2.16-14.61,10.15-16.55,1-.24,2.07-.98,2.73-1.79,3.7-4.62,8.62-6.01,13.29-5.73Zm.27,18.77l.37-.09c-.47-2.47-.89-4.95-1.41-7.41-.41-1.94-.76-3.92-1.48-5.74-.24-.62-1.52-.82-2.33-1.22-.16,.81-.69,1.76-.43,2.4,1.66,4.06,3.5,8.05,5.27,12.06Zm3.91-.3l.75,.23c.78-2.34,1.68-4.65,2.24-7.05,.13-.54-.92-1.36-1.43-2.06-.52,.58-1.45,1.13-1.49,1.74-.18,2.37-.07,4.75-.07,7.13Zm-12.92,4.01l.22-.54c-2.3-1.46-4.54-3.01-6.93-4.29-.53-.28-1.59,.42-2.4,.66,.42,.7,.69,1.82,1.28,2.02,2.56,.86,5.22,1.46,7.84,2.15Zm4.16-2.43c-1.88-5.62-4.56-7.88-7.23-6.31,2.46,2.15,4.84,4.23,7.23,6.31Z"/><path d="M495.38,272.26c-.71-.91-1.3-1.57-1.78-2.31-2.55-3.95-6.18-5.04-10.43-3.52-3.4,1.21-5.31-.26-6.86-2.91-3.47-5.93-1.91-18.99,2.83-23.99,2.68-2.83,6.76-3.51,9.97-1.13,1.93,1.43,3.35,1.28,5.33,.36,3.75-1.74,7.39-1.07,10.68,1.33,7.12,5.2,9.78,14.34,6.53,22.61-.37,.94-1.15,1.98-2.02,2.43-4.7,2.47-9.48,4.76-14.25,7.13Zm0-16.24l.46,.47c2.18-3.77,4.41-7.51,6.44-11.35,.24-.46-.66-1.52-1.03-2.3-.57,.51-1.42,.9-1.66,1.53-1.48,3.85-2.82,7.76-4.21,11.65Zm-12.61-12.7c.75,3.57,1.46,6.95,2.27,10.79,2.14-6.92,1.56-9.89-2.27-10.79Zm7.35,11.65l.47,.14c1.16-2.8,2.39-5.57,3.39-8.43,.16-.45-.72-1.26-1.11-1.91-.6,.47-1.63,.86-1.72,1.41-.47,2.91-.71,5.86-1.02,8.79Zm17.38-4.43c-2.51,1.88-4.67,3.51-6.83,5.13,5.76,.37,7.89-1.19,6.83-5.13Z"/><path d="M374.19,126.28c-.24-3.78,1.43-6.53,5.35-7.94,.81-.29,1.65-1.1,2.03-1.88,3-6.18,8.43-9.21,15.04-8.26,11.11,1.6,17.2,10.79,14.15,21.6-.65,2.31-1.78,4.56-3.06,6.6-1.94,3.09-3.75,5.84-8.67,4.16-2.39-.82-5.77,1.34-8.73,2.06-1.39,.34-2.99,1.01-4.21,.63-6.3-2.01-11.89-10.05-11.91-16.98Zm22.79-12.49l-.76-.69c-.85,.62-2.48,1.31-2.43,1.85,.33,3.63,1.02,7.22,1.6,10.82l.64-.15c.32-3.94,.64-7.89,.95-11.83Zm3.3,11.16l.9,.41c1.03-1.57,2.22-3.06,3.02-4.74,.28-.58-.41-1.63-.66-2.46-.78,.49-2.01,.82-2.24,1.5-.58,1.68-.71,3.51-1.03,5.29Zm-12.81-8c-.99,3.51,.73,7.12,4.46,9.86l-4.46-9.86Zm-7.29,9.06c2.36,.98,4.64,1.93,7.39,3.08-3.46-4.77-5.45-5.6-7.39-3.08Z"/></svg>