<?xml version="1.0" encoding="UTF-8"?><svg id="a" xmlns="http://www.w3.org/2000/svg" viewBox="0 0 800 600.7"><path d="M311.58,286.93c-8.9-9.2-17.32-18.65-26.52-27.26-15.56-14.56-34.28-21.47-55.66-20.61-9.93,.4-19.3,3.2-28.21,7.57-1.12,.55-2.26,1.07-3.62,1.72,4.4-9.3,17.02-14.34,38.79-15.73l.19-.91c-5.58-1.07-11.12-2.59-16.75-3.13-20.82-2.01-39.23-9.25-54.34-24.03-12.75-12.47-20.77-27.75-26.61-45.35,7.2-1.21,14.14-3.01,21.17-3.43,24.14-1.44,45.59,4.9,62.55,23.14,6.07,6.53,10.38,14.14,13.33,22.46,6.17,17.43,16.84,31.13,32.76,40.66,.6,.36,1.16,.78,1.76,1.14,.19,.12,.44,.15,1.14-.15-1.12-1.16-2.24-2.32-3.35-3.48-13.55-14.14-21.19-30.73-20.26-50.57,.28-5.91,1.39-11.84,2.76-17.61,2.68-11.28,7.41-22.15,6.11-35.31,5.79,4.62,10.93,8.26,15.52,12.5,5.65,5.23,11.23,10.65,16.16,16.56,11.52,13.84,14.33,30.03,11.73,47.49-1.72,11.56-3.66,23.1-2.55,34.89,1.33,14.13,6.68,26.35,16.66,36.79l3.86-2.28c-7.53-8.38-9.83-18.08-7.73-28.78,1.72-8.75,6-16.13,12.84-21.96,13.43-11.44,28.33-10.06,46.58,4.6,.4-9.42,4.45-16.73,12.14-21.72,8.54-5.55,18.05-7.81,28.12-6.43,16.89,2.33,32.85,14.11,30.7,37.18,9.93-2.77,16.7,2.05,23.04,8.91,7.35,7.95,5.29,15.65,.45,23.68,10.91-.83,16.37-.26,27.73,8.95-1.11-11.38,.24-22.35,4.67-33.08-.96,1.15-1.92,2.31-2.88,3.46-1.03,1.24-2.07,2.49-3.52,3.52,.62-1.69,1.23-3.39,2.07-5.69-3.09,2.23-5.73,4.13-8.81,6.35,1.29-2.95,2.4-5.46,3.51-7.98l-.49-.3c-2.1,1.54-4.2,3.08-6.3,4.61l-.53-.35c.82-1.89,1.63-3.77,2.65-6.13-2.87,2.03-5.31,3.76-7.75,5.48l-.8-.83c.98-1.62,1.97-3.23,3.31-5.43-3.66,1.39-6.74,2.56-9.83,3.73-.36-.47-.73-.94-1.09-1.41l6.1-3.8c-.31-.38-.62-.76-.93-1.14-2.34,.46-4.69,.93-7.03,1.39l-.38-.57c2.09-1.76,4.17-3.51,6.6-5.55h-7.89c2.56-2.42,4.42-4.19,6.49-6.15-5.84-1.42-11.32-2.76-16.8-4.1l.03-.79h11.51l.24-.77c-2.1-1.37-4.2-2.75-6.3-4.12l.16-.61h8.23c-2.37-2.16-4.55-4.15-6.74-6.15l.27-.51c2.76,.6,5.53,1.2,8.88,1.93-2.2-3.08-4.14-5.79-6.08-8.5l.52-.61c2.83,1.61,5.67,3.22,9.14,5.19-1.66-3.84-3.06-7.06-4.69-10.83,3.43,2.55,6.35,4.71,9.26,6.87l.62-.52c-1.36-3.13-2.72-6.26-4.08-9.39l.44-.45,7.69,5.42,.65-.42c-2.91-4.5-5.82-9.01-8.72-13.51l.45-.47c4.21,4.03,8.42,8.06,12.63,12.1l.53-.16c-2.43-5.58-4.97-11.11-7.27-16.74-2.37-5.81-4.68-11.67-6.66-17.62-.67-2.02-.62-4.45-.3-6.6,.59-3.96,2.29-7.4,6.35-9,4.22-1.66,8.04-.76,11.46,2.05,1.34,1.1,2.57,2.34,3.93,3.6,.81-.65,1.51-1.23,2.23-1.8,7.02-5.55,14.54-5.2,19.97,1.93,3.55,4.66,5.78,10.32,8.55,15.56,.58,1.11,.92,2.34,1.54,3.93,5.43-7.29,12.74-10.24,21.09-10.5,13.84-.43,25.04,8.13,29.18,22.2,7.12,24.21-8.22,42.37-30.46,45.59-.99,.14-2.23,.07-3.07-.4-10.31-5.8-19.94-2.28-29.4,2.18-8.99,4.24-12.55,10.92-11.32,20.74,.7,5.56,4.5,9.37,7.97,13.31,.99,1.13,2.19,2.07,4,3.74-.91-3.31-1.57-5.76-2.26-8.2-.71-2.51-1.43-5.02-2.15-7.53l.8-.51c1.83,1.93,3.69,3.82,5.48,5.78,1.8,1.97,3.54,4.01,5.96,6.76-1.27-6.5-2.37-12.09-3.46-17.67l.96-.53c3.23,4.62,6.47,9.23,10.23,14.61-.52-6.29-.96-11.73-1.41-17.16l1.03-.36c2.55,4.71,5.09,9.43,7.81,14.46,.28-5.5,.55-10.68,.82-15.86l.9-.33c1.99,4.33,3.98,8.66,5.9,12.85,2.53-4.03,3.1-16.46,.87-22.28,3.65,1,4.79,1.95,12.41,10.32,.14-.15,.4-.29,.4-.44,.09-6.37,.1-6.49,6.57-6.1,8.31,.51,15.67,3.82,22.14,8.83,15.31,11.87,26.62,26.79,33.31,45.07,.11,.31,.16,.63,.09,1.11-13.57-19.53-28.99-36.34-55.03-38.38,.54,3.22,1.76,4.4,4.88,4.55,10.24,.48,18.73,5.49,26.56,11.57,10.6,8.22,19,18.32,24.77,30.51,.24,.5,.43,1.02,.33,1.71-3.22-3.83-6.19-7.92-9.72-11.43-3.55-3.52-7.42-6.86-11.61-9.56-4.28-2.75-8.96-5.08-13.75-6.77-4.66-1.65-9.68-2.26-15.05-3.45,.74,5.19,1.36,9.5,1.98,13.82-.46,.07-.77,.2-.86,.12-6.64-6.54-14.56-9.99-23.94-9.94-.57,0-1.18-.11-1.72-.3-2.88-1.04-4.87-.36-7.15,2-4.02,4.17-9.31,5.56-15.14,4.56-.76-.13-1.68,.11-2.4,.44-4.81,2.23-9.53,4.67-14.41,6.7-.89,.37-2.44-.82-4.03-1.42-.31,2.15-.64,4.49-1.03,7.19-1.17-.34-2.17-.64-3.43-1.01,3.53,12.38,2.67,24.26-3.95,35.26-6.65,11.04-16.72,17.01-29.79,18.32,2.14,6.64,2.52,13.18,.69,19.73-2.64,9.44-8.68,16.27-17.14,20.82-15.39,8.27-31.14,9.8-46.72,.66-4.12-2.42-7.43-6.21-11.36-9.58,.47-.31,.09-.2-.04,.04-7.78,14.59-21.07,19.43-36.35,19.3-14.36-.12-26.72-5.66-35.39-17.61-8.11-11.19-7.25-23.95,1.85-34.41,.36-.41,.66-.87,1.06-1.41-18.57-3.22-30.23-14.24-32.7-30.1-2.09-13.39,4.3-29.32,20.94-36.14Zm81.99,54.45l-.98-.03c.44,8.02,.73,16.06,1.37,24.07,.56,7.1,2.96,13.66,7.01,19.56,1.05,1.53,2.3,2.95,3.62,4.25,.44,.44,1.4,.35,2.12,.5,.1-.65,.32-1.3,.26-1.93-.07-.68-.43-1.33-.61-2-.14-.54-.21-1.1-.41-2.21,3.98,4.1,6.19,9.26,11.47,10.9,.42-.24,.84-.49,1.26-.73-1.84-4.36-3.67-8.73-5.51-13.09,1.07,.7,1.79,1.69,2.65,2.54,3.48,3.45,6.9,6.97,10.57,10.2,.84,.74,2.57,.46,3.89,.66,.15-1.29,.65-2.67,.37-3.87-.54-2.3-1.53-4.49-2.66-7.64,3.05,3.2,5.23,5.81,7.77,8,1.05,.91,2.87,.92,4.33,1.34,.25-1.51,1-3.15,.66-4.51-.65-2.63-1.92-5.1-3.3-8.57,2.66,2.92,4.49,5.2,6.64,7.14,.89,.8,2.45,.85,3.7,1.24,.32-1.27,1.16-2.68,.87-3.79-.77-2.99-2.01-5.86-2.7-7.77,.92,.76,2.49,2.28,4.28,3.47,1.13,.75,2.58,1.03,3.89,1.51,.32-1.39,.94-2.8,.89-4.18-.04-1.34-.67-2.7-1.21-3.98-1.11-2.63-2.33-5.21-3.64-8.12,2.94,2.38,5.55,4.5,8.85,7.17,1.14-7.28-3.45-10.61-6.44-14.86,1.99,.73,3.82,1.41,5.65,2.08l.65-1.16c-9.26-15.8-24.61-23.84-40.68-30.96,3.39,3.19,6.78,6.39,10.17,9.58-.11,.19-.23,.37-.34,.56-4.69-2.33-9.38-4.65-14.07-6.98l-.31,.43c4.06,4.8,8.12,9.59,12.18,14.39l-.35,.35c-5-3.48-10-6.96-15.01-10.44l-.56,.48,10.66,18.74-.38,.21c-5.07-5.44-10.13-10.87-15.2-16.31l-.4,.22c2.49,7.17,4.99,14.35,7.48,21.52l-.36,.16c-4.13-6.47-8.26-12.94-12.39-19.41l-.52,.24c.99,6.41,1.98,12.82,2.97,19.23l-.7,.15c-2.5-6.12-5-12.24-7.5-18.36Zm-18.31-4.01c-5.09,7.71-9.67,14.64-14.25,21.57l-.41-.24c2.82-7.14,5.65-14.28,8.47-21.42l-.67-.27-14.6,17.02-.38-.3c3.73-6.72,7.47-13.45,11.2-20.17l-.56-.33c-4.85,4.36-9.71,8.73-14.56,13.09l-.32-.34,11.21-15.78-.66-.64c-2.91,2.41-5.95,4.68-8.69,7.27-8.34,7.85-16.62,15.76-24.76,23.81-1.32,1.3-1.86,3.4-2.75,5.13l.87,.7c1.82-.83,3.64-1.66,5.8-2.65-2.79,4.44-7.44,7.66-6.07,14.7,2.98-2.59,5.29-4.6,7.3-6.35-.91,3.34-2.05,6.87-2.74,10.48-.2,1.07,.75,3.3,1.39,3.38,1.21,.15,2.8-.58,3.82-1.43,1.36-1.13,2.34-2.73,3.48-4.12-.43,2.63-1.54,4.94-2.11,7.38-.3,1.29,.35,2.79,.57,4.2,1.48-.36,3.26-.33,4.38-1.17,2.1-1.58,3.83-3.67,6.21-6.06-.4,1.42-.63,2.16-.81,2.91-.6,2.59-3.37,5.76-.61,7.67,3.03,2.11,5.48-1.32,7.76-3.16,2.91-2.35,5.68-4.88,7.73-6.66-1.44,2.94-3.4,6.96-5.37,10.98l.89,.85c6.21-.8,9.25-6.58,14.36-10.41-1.58,3.42-2.84,6.15-4.26,9.23q3.76-.33,11.69-8.88c-.16,1.56-.29,2.86-.51,5.12,1.73-1.18,3.17-1.67,3.76-2.66,2.35-3.98,5.81-7.95,6.32-12.23,1.22-10.03,1.06-20.24,1.27-30.38,.06-2.86-.51-5.74-.8-8.61h-.53c-2.29,7.28-4.57,14.55-6.86,21.83l-.55-.15c.35-6.89,.69-13.78,1.04-20.68l-.54-.05c-3.32,7.36-6.63,14.71-9.95,22.07l-.5-.22c1.7-7.71,3.4-15.42,5.3-24.02Zm43-16.29c-.04,.21-.08,.42-.12,.63,13.08,7.41,26.14,14.87,39.28,22.17,2.1,1.17,4.54,1.85,6.91,2.34,1.53,.31,3.22-.15,4.83-.26l.27-1.2c-2.29-1.38-4.58-2.77-7.27-4.4,14.2,1.55,17.96,.97,19.94-3.29-2.5-.9-4.98-1.78-7.47-2.67,3.18-.43,6.25-.18,9.24-.54,1.31-.16,2.46-1.58,3.68-2.43-1-1-1.83-2.36-3.03-2.91-2.33-1.06-4.87-1.65-7.32-2.44,3.2-.51,6.26-.35,9.28-.59,1.33-.1,2.6-1.03,3.89-1.58-.96-1.31-1.67-2.99-2.94-3.82-1.77-1.17-3.95-1.7-5.95-2.5,1.61-.65,3.07-.56,4.38-.97,1.96-.61,3.8-1.58,5.69-2.4-1.69-1.6-3.17-3.57-5.13-4.7-2.15-1.24-4.75-1.71-7.15-2.51,.96-.48,1.8-.39,2.58-.58,2.45-.6,6.4,.59,6.84-2.6,.44-3.2-3.38-4.12-5.95-4.93-3.63-1.14-7.43-1.73-11.55-2.64,4.31-.98,8.18-1.86,12.98-2.94-7.14-6.12-14.69-4.58-21.92-4.98,3.07-1.07,6.14-2.15,9.22-3.22-.12-.33-.24-.66-.36-.99-17.84-1.64-31.73,8.73-46.65,16.13,8.26-.73,16.53-1.45,24.79-2.18l.18,.86c-8.5,2.7-16.99,5.4-25.89,8.23,8.62,1.3,16.98,2.56,25.35,3.82-.01,.25-.02,.5-.04,.75-8.64,.85-17.29,1.69-26.82,2.63,9.29,3.44,17.78,6.58,26.26,9.72-.08,.27-.17,.54-.25,.81-9.93-1.27-19.86-2.55-29.8-3.82Zm-98.5-46.18l-.7,.76c1.01,1.35,1.74,3.21,3.08,3.97,4.45,2.49,8.98,5.01,13.75,6.75,8.57,3.12,17.34,5.69,26.03,8.48,.13-.26,.25-.52,.38-.78-5.79-5.06-11.58-10.13-17.37-15.19l.39-.53c6.96,3.9,13.93,7.8,20.89,11.7l.3-.48c-5.11-6.19-10.22-12.38-15.34-18.57l.48-.43c5.96,4.69,11.92,9.37,17.88,14.06l.39-.44c-4.16-6.71-8.32-13.42-12.48-20.13l.61-.4c5.89,6.48,11.78,12.96,18.06,19.86-3.38-8.76-6.57-17.01-9.75-25.25l.6-.25c4.6,7.36,9.2,14.72,13.8,22.08-.61-7.11-1.46-13.96-3.08-20.62-1.42-5.85-3.61-11.52-5.66-17.19-.44-1.21-1.74-2.11-3.13-3.71-.25,1.9-.38,2.86-.52,3.93-2.02-3.15-3.82-6.28-5.97-9.13-.72-.96-2.33-1.24-3.54-1.84-.29,1.25-.62,2.49-.84,3.76-.11,.65-.02,1.33-.02,2.35-1.79-1.93-3.18-3.87-4.99-5.23-1.33-1-3.23-1.25-4.88-1.83,.19,1.71,.38,3.42,.56,5.13,.02,.2-.05,.41-.06,.44-2.62-1.35-5.2-2.99-8.01-3.99-1.31-.47-3.07,.31-4.62,.52,.31,1.51,.48,3.07,.99,4.51,.36,1.02,1.19,1.88,2.15,3.33-2.43-1.3-4.24-2.66-6.27-3.22-1.61-.45-3.49,.08-5.26,.17,.28,1.74,.27,3.59,.92,5.17,.62,1.51,1.92,2.74,3.42,4.77-2.75-1.39-4.62-2.59-6.66-3.26-1.19-.39-3.37-.39-3.83,.29-.68,1.02-.68,2.98-.17,4.2,.85,2.01,2.35,3.75,3.22,5.05-2.07,.12-5.13-.58-6.15,.56-2.08,2.32-.11,5.01,1.43,7.23,1.08,1.55,2.33,2.99,3.57,4.55-2.71-.64-5.22-1.23-8.26-1.95,1.12,6.89,6.94,8.26,11.11,11.85-2.48-.39-4.48-.71-6.47-1.03Zm-11.37,29.17c-9.24,3.32-10.36,4-12.24,8.63,3.57,.42,6.88,.81,10.26,1.21-2.6,1.14-5.29,2.14-7.78,3.5-.81,.44-1.61,1.92-1.48,2.77,.12,.75,1.47,1.68,2.41,1.86,2.35,.46,4.76,.54,7.52,.82-2.57,1.27-4.93,2.22-7.04,3.55-2.17,1.37-2.01,3.44,.29,4.6,1.09,.55,2.46,.72,3.71,.78,2.31,.12,4.62,.03,6.93,.03-1.55,1.44-3.12,2.19-4.68,2.98-2.33,1.19-2.21,2.82-.13,3.83,2.25,1.1,4.77,1.94,7.25,2.22,3.23,.37,6.53,.09,10.51,.09-2.85,1.44-4.93,2.5-7.44,3.77,10.47,4.39,33.66-6.8,43.72-20.67-7.7,3.6-15.11,7.07-22.52,10.53l-.31-.56c7.06-5.26,14.13-10.53,21.19-15.79l-.26-.56c-7.58,1.6-15.15,3.2-22.73,4.8l-.19-.44c6.92-3.4,13.84-6.81,20.75-10.21l-.2-.48h-24.12l-.13-.67c7.97-1.81,15.94-3.61,23.93-5.42-8.28-1.84-16.65-3.71-25.02-5.57l.16-.42h31.02c-12.86-5.93-25.29-10.79-38.42-13.57-2.81-.6-5.98-1.05-8.76,1.52,1.39,.76,2.56,1.4,4.33,2.37-6.02,.38-11.43,.76-16.46,5.72,3.81,.73,6.74,1.29,10.08,1.92-4.65,1.91-10.47,.28-14.14,6.21,3.87,.25,6.93,.44,9.98,.63Zm69.72-78.77c-2.89,5.47,2.02,42.99,6.35,54.84v-22.93c1.74,6.92,3.33,13.28,5.19,20.68,1.28-8.75,2.39-16.43,3.51-24.11l.43,.09c.61,7.77,1.23,15.53,1.88,23.87,2.94-8.67,5.66-16.68,8.37-24.69l.53,.16c-1.12,7.83-2.25,15.66-3.37,23.5l.35,.09c3.43-7.33,6.86-14.66,10.3-21.98l.61,.22c-1.65,6.47-3.31,12.94-4.96,19.41l.44,.17c3.89-5.91,7.78-11.81,11.67-17.72l.65,.39c-2.18,5.19-4.35,10.37-6.85,16.32,10.81-10.69,20.13-21.18,20.68-36.36l-.91-.72-3.78,2.34c.38-2.61,.93-5.11,1.02-7.64,.03-.93-1.03-1.89-1.59-2.83-.79,.68-1.72,1.25-2.34,2.05-.65,.85-1.01,1.92-1.3,2.5-.28-3.59-.46-7.41-.96-11.19-.1-.79-1.24-1.77-2.09-2.02-.5-.15-1.56,.86-2.03,1.58-.86,1.32-1.47,2.8-2.55,4.94-.14-2.95,.11-5.2-.45-7.24-.44-1.61-1.85-2.95-2.83-4.41-1.12,1.2-2.51,2.26-3.31,3.65-.94,1.64-1.37,3.57-2.33,6.22-.45-3.35-.59-5.77-1.16-8.09-.33-1.33-1.36-2.48-2.07-3.71-1.22,.92-2.9,1.6-3.57,2.82-1.55,2.83-2.62,5.92-4.17,9.59-.41-4.37-.75-8.09-1.16-12.44-6.21,3.01-6.21,8.8-8.22,13.44-.56-2.92-1.07-5.59-1.7-8.89-5.58,3.8-3.85,9.42-5.3,13.92-.94-1.82-1.78-3.46-3-5.81Zm158.71-2.33l.19,.71c4.07-.76,8.14-1.52,12.22-2.28l.23,.53c-3.5,2.5-7.01,4.99-10.51,7.49,8.9,.09,17.2-1.65,24.96-5.41,1.74-.84,2.88-2.94,4.29-4.47-1.89-.36-3.78-.72-5.53-1.06,3.02-3.07,8.71-4.3,10.02-10.41-2.23,.17-4.03,.31-6.04,.47,2.23-3.12,5.54-5.58,5.31-10.84l-6.56,3.21c1.6-3.59,3.15-7.05,4.69-10.5l-.71-.93c-2.64,.45-5.28,.89-7.91,1.33,.7-2.28,1.42-4.61,2.45-7.94-4.61,1.42-8.17,2.52-11.68,3.6,1.21-1.93,2.45-3.92,3.87-6.18-5.63-.5-8.79,.5-14.75,4.54,1.33-2.69,2.44-4.94,3.72-7.54-8.55,2.06-23.58,19.24-24.89,27.85,4.56-3.33,9.12-6.67,13.69-10l.27,.38-9.3,12.91,.68,.56,11.72-7.72,.22,.34c-2.68,3.55-5.36,7.11-8.03,10.66l.52,.49,12-6.02,.32,.57c-3.06,3.42-6.12,6.84-9.87,11.05,5.3-1.72,9.52-3.09,14.54-4.72l-10.13,9.31Zm-25.17-19.8l.55,.1c1.02-5.99,2.05-11.98,3.07-17.97l.37-.03c.32,6.2,.64,12.4,.96,18.6,1.75-3.52,2.86-7.13,3.87-10.76,3.17-11.41,.15-21.46-7-30.47-4.76-6-9.93-5.97-14.8-.2q-5.14,6.1-10.87,.66c-3.73-3.54-8.04-2.84-9.41,2.15-.95,3.44-1.24,7.62-.17,10.94,2.74,8.51,6.38,16.72,9.7,25.04,.51,1.27,1.21,2.45,1.82,3.68l.74-.32c-.81-4.16-1.61-8.32-2.42-12.47l.62-.12c2.24,4.42,4.47,8.84,6.71,13.26l.6-.17c-.53-5.21-1.06-10.41-1.59-15.62l.48-.07c2.01,4.6,4.03,9.19,6.41,14.64v-17.54c1.75,5.55,3.43,10.9,5.12,16.24l.44-.14c.4-5.47,.79-10.94,1.19-16.42l.36-.02,3.25,17.02Zm20.59,28.86c-.81-6.77-4.22-10.69-7.66-14.71-.72,.67-1.24,1.16-1.97,1.84-.31-1.44-.42-2.63-.85-3.69-.62-1.52-1.47-2.94-2.23-4.41-1.07,1.19-2.14,2.38-3.01,3.34-.53-1.6-1.22-3.67-2.24-6.71-1.66,2.41-2.63,3.84-3.49,5.08l-2.68-3.94c-1.31,1.4-2.62,2.8-4.02,4.3-.41-1.27-.86-2.63-1.65-5.06-1.72,2.44-2.9,4.11-4,5.66-.59-1.19-1.12-2.27-1.66-3.36-1.11,.74-2.28,1.4-3.29,2.24-.63,.52-1.02,1.31-1.61,2.1-.54-1.41-.98-2.54-1.67-4.36-1.99,2.62-3.55,4.68-5.3,6.97-.21-1.4-.36-2.38-.51-3.35l-.88-.39c-1.69,2.67-3.39,5.34-5.07,7.98l-.36-2.87c-3.4,2.1-4.76,5.4-3.51,9.02,1.18,3.4,2.66,6.7,4.1,10.01,.14,.32,.93,.35,1.41,.51,.37,1.43,.81,3.16,1.39,5.4,1.23-1.34,2.03-2.2,3.17-3.44v6.53l.75,.31c1.25-1.68,2.5-3.36,3.83-5.16,.39,1.5,.74,2.87,1.36,5.26,1.59-2.5,2.64-4.16,3.85-6.05,.65,1.63,1.2,3.04,2.19,5.51,1.53-3.08,2.57-5.17,3.74-7.53,.96,1.9,1.77,3.53,2.59,5.16l.95-.16c.57-2.07,1.13-4.14,1.82-6.63,1.15,1.74,1.94,2.94,3.29,4.97,.66-2.87,1.11-4.83,1.69-7.38,.76,1.02,1.03,1.53,1.43,1.89,.64,.57,1.36,1.04,2.05,1.55,.3-.89,.77-1.77,.86-2.69,.11-1.19-.08-2.41-.19-4.58,1.87,2.27,3.09,3.75,4.79,5.82,.17-2.46,.27-4,.38-5.61,2.2,1.3,4.12,2.44,6.05,3.58,.22-.26,.43-.53,.65-.79-.42-1.77-.85-3.55-1.22-5.11l6.71,2.96Zm-105,37.35l.47,.39c-4.35,5.28-8.69,10.56-13.04,15.84l.49,.38,17.02-10.49,.95,1.11c-4.73,4.48-9.45,8.95-14.18,13.43l.33,.49c5.89-2.43,11.78-4.85,17.67-7.28l.2,.49-15.05,11.16c11.98-3.71,23.54-8.25,33.44-16.11,1.67-1.33,2.98-3.32,3.95-5.26,1.64-3.29-.11-5.84-3.74-5.92-.72-.01-1.44,.11-2.86,.23,.93-.78,1.25-1.08,1.6-1.35,4.49-3.4,5.85-6.3,4.67-9.99-1.26-3.97-5.59-6.83-10.39-6.96-5.36-.14-9.92,2.02-13.56,5.62-7.23,7.14-14.16,14.57-21.17,21.94-.78,.82-1.22,1.97-1.82,2.96l.58,.37c4.82-3.69,9.64-7.37,14.46-11.06Zm-43.72,26.31c-.91-1.1-1.59-2.59-2.66-2.97-.77-.27-2.43,.7-3.01,1.57-.44,.66-.06,2.2,.45,3.05,.81,1.35,1.24,4.72,.37,6.03-2.52,3.78-1.61,9.11,2.04,11.94,3.73,2.9,9.34,2.21,12.59-1.55,2.82-3.26,2.37-8.5-.67-11.74-1.04-1.11-1.82-2.86-1.89-4.36-.12-2.5-1.21-3.48-3.46-3.16-1.42,.2-2.77,.87-3.76,1.19Zm-205.33-111.77c21.8,10.3,38.71,27.43,57.79,41.53-15.06-16.63-39.26-36.87-57.79-41.53Zm109.28,67.92c-9.49-20.9-11.62-43.63-16.18-65.75,1.47,22.89,3.29,45.69,16.18,65.75Zm113.45,48.04c-.67-3.22-1.81-4.55-4.23-4.63-2.64-.09-4.24,1.63-3.92,3.82,.21,1.45,2.23,3.59,3.54,3.66,1.48,.08,3.07-1.81,4.61-2.84Zm-4.12,10.59c1.28,1.2,2.58,3.35,3.83,3.33,1.37-.03,3.34-1.84,3.89-3.31,.77-2.08-.53-3.88-3-4.09-2.33-.2-3.76,.92-4.71,4.07Zm-.19,4.92c-1.89,2.26-3.93,3.68-3.76,4.76,.23,1.49,1.9,3.44,3.36,3.91,2.15,.69,4.04-1.11,3.85-3.26-.13-1.52-1.78-2.92-3.45-5.41Zm-4.46,7.75c-2.36-1.74-3.6-3.34-5.04-3.56-2.2-.33-3.59,1.67-3.13,3.6,.33,1.41,2,3.3,3.27,3.46,1.16,.15,2.58-1.74,4.9-3.5Zm-15.15-20.06c-.02-.51-.05-1.01-.07-1.52-1.29-.75-2.72-2.26-3.84-2.06-1.2,.22-2.11,2.05-3.15,3.17,1.14,1.04,2.22,2.81,3.44,2.91,1.13,.09,2.4-1.6,3.61-2.51Zm1.45,12.72c-1.53,2.1-2.98,3.3-3.19,4.68-.13,.83,1.97,2.93,2.57,2.75,1.34-.4,3.02-1.69,3.33-2.93,.24-.97-1.36-2.4-2.71-4.5Zm-8.27-3.14v1.6c1.14,.73,2.38,2.18,3.37,2.02,1.2-.18,2.2-1.72,3.28-2.67-.97-1.1-1.83-2.94-2.92-3.09-1.13-.15-2.48,1.35-3.73,2.13Z"/><path d="M392.74,475.3c6.76-35.99,24.89-62.06,61.2-72.83,26.96-8,60.6,5.19,71.8,16.91-4.19,.4-8.98,.32-13.51,1.39-11,2.6-22.07,3.91-33.36,3.76-12.47-.16-24.75,1.18-36.53,5.58-14.31,5.34-26.06,14.05-34.76,26.7-.36,.53-.66,1.1-.78,1.88,13.6-15.15,30.32-24.23,50.55-26.42,20.34-2.2,38.2,4.12,54.54,16.09-6.94,1.23-13.6,2.53-20.3,3.56-11.32,1.74-22.78,2.7-33.96,5.06-21.28,4.49-38.78,14.9-49.17,34.88-5.87,11.3-8.18,23.43-5.73,36.04,3.36,17.29,15.31,26.01,31.45,30.07,3.49,.88,7.12,1.2,11.29,1.88-6.94,2.25-13.41,2.01-19.93,.63-16.69-3.55-28.04-13.92-35.62-28.63-3.57-6.93-6.19-14.35-9.21-21.55-11.37-27.09-32.34-40.68-61.01-43.65-6.5-.67-12.98-1.7-19.41-2.87-6.84-1.25-13.61-2.19-20.52-.15,14.72-14.99,32.62-21.41,53.42-19.37,20.61,2.02,36.66,12.62,49.92,28.07l.66-.63c-2.1-2.84-4.02-5.85-6.34-8.51-15.2-17.41-34.53-26.4-57.49-27.4-13.38-.58-26.5-1.7-38.98-7.34-4.32-1.95-9.42-2.17-14.29-3.21,3.8-6.4,9.77-11.06,17.49-12.44,7.08-1.27,14.39-1.19,21.61-1.65,1.74-.11,3.5-.02,5.3-.27-6.21-2.45-12.55-4.62-19.36-3.42-15.75,2.78-27.92-4.76-39.77-13.1,15.08-4.83,29.72-1.66,44.41,1.99,18.64,4.63,36.98,9.99,53.58,19.96,22.05,13.25,36.16,32.38,42.13,57.46,.1,.43,.37,.83,.7,1.53Z"/><path d="M211.41,267.72c-3.7-1.25-7.11-2.35-10.49-3.56-.96-.34-1.82-.98-3.33-1.82,22.37-4.7,43.62-2.25,64.74,3.91-8.74-8.65-19.87-12.63-31.34-16.39,21.86-4.79,51.24,10.68,65.97,34.51-3.56,4.48-7.12,8.94-10.73,13.49-19.42-9.93-39.38-10.05-60.09-3.06,1.18-3.89,3.53-6.7,6.63-8.68,3.02-1.93,6.28-3.6,9.63-4.84,3.46-1.28,7.16-1.92,10.74-3.13-4.82-.66-9.6-.74-14.38,.77-7.63,2.42-14,6.89-19.98,12.01-5.33,4.56-10.65,9.13-15.52,13.31-1.41-4.86,1.24-10.56,3.64-16.82-2.41,2.32-5.42,4.27-7.1,7.03-4.24,6.97-9.75,12.76-15.25,18.68-3.19,3.44-5.57,7.63-8.51,11.75,1.49-15.66,5.79-29.52,19.35-39.07,11.35-8,23.81-13.18,37.25-16.61-3.55,.43-7.12,.8-10.66,1.31-3.58,.52-7.21,.91-10.69,1.85-20.77,5.64-33.86,19.32-40.75,39.37-1.06,3.09-2.11,6.18-3.18,9.26-7.22,20.65-21.98,32.45-43.12,36.76-1.81,.37-3.61,.78-6.19,1.33,1.42-2,2.44-3.46,3.48-4.91,7.72-10.78,12.91-22.7,15.95-35.56,6-25.38,22.61-39.82,47.3-45.72,8.71-2.08,17.6-3.43,26.62-5.16Zm-22.71,9.5c-17.05,1.45-36.84,25.51-41.25,47.87,4.39-7.66,9.35-17.55,15.47-26.67,6.27-9.35,15.57-15.63,25.78-21.2Z"/><path d="M482.53,377.06c-6.1-.34-8.03-2.78-7.31-8.6,.71-5.79,4.03-9.99,8.45-13.22,6.92-5.07,14.53-8.94,23.06-10.52,3.94-.73,7.99-.92,11.49,2.93,3.26-5.74-1.05-11.7,1.71-17.67,1.49,2.93,2.8,5.5,4.32,8.48,1.23-3.58,2.36-6.85,3.48-10.11h1.01c.39,2.74,.78,5.48,1.27,8.95,1.31-1.74,2.44-3.23,3.57-4.73l1.14,.72c-.41,2.41-.82,4.83-1.43,8.46,4.15-3.08,7.91-5.37,11.04-8.32,4.17-3.93,4.5-9.04,1.5-12.95-2.99-3.88-6.66-4.4-11-2.29-2.76-1.19-4.74-2.81-6.65-2.72-4.85,.22-5.83,4.62-7.37,8.16-1.65-1.12-3.15-2.51-4.91-3.26-4.02-1.73-7.27,.74-6.46,5.04,.53,2.8,1.9,5.45,2.85,8.04-5.28-.31-9.08-5.18-9.21-12.19-.26-14.25,11.21-25.9,25.41-25.79,4.44,.03,6.32,1.7,6.95,6.14,.16,1.12,.36,2.24,.64,3.96,3.48-3.58,6.8-6.71,11.81-4.39,4.49,2.08,6.78,5.55,6.31,10.78,5.64-.05,8.87,2.99,10.2,7.98,1.31,4.91-1.16,8.6-4.71,11.65-.7,.6-1.75,.94-2.69,1.08-2.42,.36-5.09,0-7.26,.91-6.08,2.51-11.3,6.85-14.93,11.7h9.42l.18,.7c-2.28,1.25-4.56,2.5-7.01,3.83,2.18,.96,4.26,1.88,6.63,2.92-6.7,1.99-16.12,.64-22.32-4.28,1.71,3.58,3.41,7.16,5.5,11.53-1.96-.89-3.15-1.43-4.87-2.21,1.03,2.43,1.9,4.49,3.2,7.57-2.6-1.56-4.37-2.62-6.44-3.86-.09,2.11-.18,4.01-.32,7.14-2.01-2.4-3.4-4.05-4.89-5.82-.84,2.23-1.63,4.33-2.69,7.16-.88-2.71-1.54-4.71-2.29-7.04-1.09,1.57-2.08,3-3.55,5.12-.36-2.6-.61-4.45-.92-6.7-1.7,.71-3.14,1.3-5.26,2.18,.56-1.98,1-3.51,1.55-5.46-2.05,.94-3.86,1.77-5.66,2.6-.3-.28-.6-.56-.91-.84,2.24-2.72,4.48-5.44,6.7-8.13-5.04-3.44-8.65-2.06-10.05,4.11-1.24,5.45-1.45,10.87,2.83,15.1,1.86,1.84,4.5,3.23,7.04,3.94,2.22,.63,3.35,1.33,3.81,3.67,.57,2.9,1.68,5.66,5.04,6.55,5.46,1.45,9.19-2.29,8.39-8.74,2.73,2.75,5.72,5.45,9.44,3.32,1.31-.75,1.22-3.95,1.83-6.27,6.78-.53,7.89-3.67,4.41-12.72,5.13,0,10.63,.47,16-.17,3.55-.42,7.07-2.13,10.27-3.86,1.34-.72,2.62-3.09,2.46-4.55-.14-1.28-2.33-2.33-3.87-3.7,3.49-3.19,8.5-6.69,2.66-13.18,6.17,.73,11.62,1.74,16.15,5.29,4.21,3.3,6.16,10.84,3.73,15.67-.95,1.9-3.33,3.08-5.05,4.59l-.59-.67c-.1,.2-.29,.41-.27,.6,.63,8.02-.98,10.18-8.9,8.98-8.49-1.28-16.78-3.84-25.15-5.87-1.1-.27-2.15-.73-3.14-1.07,2.33,3.75,4.91,7.3,6.82,11.19,1.14,2.31,1.6,5.13,1.71,7.74,.16,3.86-2,5.28-6.4,4.29,1.89,5.97,.53,10.47-5.56,12.76-3.55,1.34-6.41,.65-8.65-2.98-2.62,3.45-5.99,4.8-10.1,4.25-5.23-.7-5.05-5.04-5.76-8.67h-4.53c-.35,3.24-1.01,6.29-4.75,7.36-4.18,1.2-7.34-.81-10.11-3.4-4.29-4-5.73-9.52-7.27-14.93-.29-1.01-.49-2.04-.78-3.25Z"/><path d="M272.57,362.9c-3.79-1.33-7.03-2.48-10.56-3.72-1.36,8.22-6.2,14.53-12.16,20.08-5.65,5.27-12.18,8.03-20.14,6.73-8.83-1.44-11.03-5.31-7.15-13.11-8.55-1.41-10.41-4.71-5.81-10.35-4.22-4.27-4.49-6.44-1.34-11.76-2.78-1.59-4.95-3.7-3.91-7.28,1.41-4.82,5.4-5.56,9.71-5.62-3.92-9.93-2.16-13.95,7.51-17.17-.29-3.75,2-5.07,5.72-5.19-1.96-3.24-3.25-6.64-1.29-9.89,1.32-2.19,3.28-4.37,5.49-5.56,5.13-2.76,9.36-.38,13.08,6.7,4.97-9.62,18.15-12.72,27.27-6.41,3.18,2.2,3.23,2.69,.86,8.54-4.32-3.07-7.78-3.17-12.2-.33-3.81,2.44-6.03,7.12-4.65,11.56,1.47,4.75,3.7,9.26,6.4,13.79v-10.3c.29-.08,.58-.16,.87-.24,1.95,3.35,3.89,6.71,6.36,10.96,.28-4.37,.5-7.83,.72-11.3l.38-.05c.56,3.41,.93,6.87,1.77,10.21,.35,1.37,1.55,2.7,2.69,3.66,3.35,2.84,7.13,5.21,10.24,8.27,3.82,3.77,7.08,8.09,10.68,12.09,3.51,3.9,7.13,7.7,11.19,12.08-3.25,.34-5.96,.5-8.63,.94-9.2,1.5-18.37,3.21-27.59,4.58-3.06,.45-6.29,.44-9.36,.05-3.03-.39-5.15-2.47-5.26-5.69-.11-3.15,2.33-4.3,4.91-5.1,1.18-.36,2.38-.68,4.2-1.2Zm-40.28-1.26c.13,3.97,1.26,5.82,4.68,6.53,8.19,1.7,15.5-.18,21.59-6.08,.64-.62,.96-1.58,1.82-3.05-4.8,1.09-8.72,1.98-12.64,2.86l-.17-.5c1.73-1.3,3.46-2.59,5.62-4.22-3.96-.47-7.34-.88-10.71-1.28l.03-.58c2.52-1.02,5.03-2.05,7.99-3.25-3.9-1.25-7.17-2.3-10.44-3.35l.21-.77c3.24-.21,6.47-.42,10.08-.65-2.87-2.15-5.23-3.92-7.59-5.69l.31-.72c2.43,.16,4.87,.31,7.54,.49-4.31-4.5-9.14-6.88-13.55-6.82-3.82,.05-6.09,2.23-6.15,6.07-.02,1.35,.32,2.7,.5,4.09-4.1,1.77-8.46,3.35-8.23,9.02,.16,4.08,2.49,6.11,9.09,7.91Zm23.25-35.64l.46-.41c2.32,2.13,4.65,4.25,7.67,7.02-1.65-4.44-2.96-8.03-4.34-11.59-.33-.86-.84-1.67-1.38-2.43-3.65-5.07-11.11-4.3-13.76,1.32-.52,1.11-1.75,1.89-2.63,2.84-1.2,1.29-3.29,2.56-3.33,3.9-.05,1.57,1.3,3.88,2.72,4.67,4.31,2.4,8.93,4.23,13.44,6.27l.46-.59c-1.16-2.28-2.32-4.56-3.87-7.63,3.06,1.92,5.31,3.34,8.35,5.24-1.55-3.54-2.66-6.07-3.77-8.61Zm7.87,21.38c4.11,.34,8.04,.67,11.9,.99-2.08-1.83-4.3-3.5-6.15-5.51-1.53-1.67-1.18-3.25,1.34-3.63,1.81-.28,3.65-.38,5.61-.57-7.78-3.15-12.86,.41-12.7,8.72Zm10.93,7.91c-3.84-2.21-7.24-4.17-11.01-6.35-.3,3.14-.58,5.94-.86,8.88,4.1-.87,7.74-1.64,11.87-2.52Z"/><path d="M695.82,360.55c-28.27-.87-47.81-12.97-58.65-39.16-3.79-9.15-6.46-18.79-10.65-27.73-9.25-19.74-22.99-35.69-42.23-46.48-2.41-1.35-4.98-2.4-8.36-4.02,8.51,1.43,15.58,4.14,21.94,8.28,13.81,8.99,27.66,17.86,42.95,24.24,2.35,.98,4.55,2.39,6.71,3.77,14.07,9.03,23.51,21.55,27.87,37.73,4.18,15.5,10.64,29.88,20.31,42.76,.11,.15,.08,.41,.11,.61Zm-67.98-82.48c4.95,5.4,10.23,10.53,14.74,16.27,4.61,5.85,8.7,12.16,12.57,18.53,3.73,6.14,6.88,12.62,10.29,18.95-7.12-21.68-18.29-40.55-37.6-53.75Z"/><path d="M227.37,116.88c1.97,1.75,3.88,3.25,5.56,4.98,3.68,3.78,4.17,8.32,1.4,11.63-2.91,3.49-8.24,4.19-12.39,1.32-2.14-1.48-3.94-3.47-5.94-5.27-.39,3.27-.52,6.52-1.2,9.65-1.05,4.78-4.77,7.51-9.03,7.06-4.16-.44-7.09-4.01-7.16-8.96-.03-2.44,.23-4.88,.36-7.49-1.7,1.4-3.27,3.13-5.2,4.15-2.1,1.11-4.53,2.09-6.85,2.17-2.87,.11-5.47-1.28-6.71-4.23-1.28-3.06-1.01-6.15,1.13-8.57,2.25-2.55,5.04-4.64,7.47-6.81-2.63-.54-5.51-.85-8.2-1.75-4.45-1.48-6.74-4.72-6.52-8.5,.22-3.69,3.04-7.05,7.46-7.67,3.83-.53,7.79-.11,11.82-.11-2.77-3.89-5.82-8.49-3.12-13.83,1.03-2.04,3.48-3.92,5.69-4.7,5.92-2.1,11.54,3.03,13.68,12.78,.76-2.08,1.22-3.38,1.71-4.68,1.59-4.19,4.28-7.22,8.84-8.17,5.91-1.23,11.34,4.39,9.61,10.28-.89,3.05-2.73,5.82-4.21,8.87,2.84-.18,5.78-.53,8.71-.53,5.03,0,8.75,2.96,9.41,7.2,.7,4.51-1.63,8.1-6.75,9.59-2.98,.87-6.17,1.05-9.58,1.59Zm-9.11-.32c1-.56,2.9-1.17,2.88-1.7-.05-1.44-.92-2.85-1.17-3.49,.47-1.94,1.44-3.63,.96-4.61-.49-.99-2.42-1.26-3.37-1.69-.15-1.3,.02-3.46-.5-3.64-1.44-.5-3.16-.17-4.4-.17-.62-1.13-1.24-2.23-1.85-3.34l-3.41,1.91c-1.01-.41-2.49-1.53-3.17-1.16-1.27,.68-2.08,2.22-3.18,3.51-3.57-1.52-4.01-1.2-4.09,3.43-3.57,1.61-3.71,2.51-1.19,5.36-.6,1.33-1.83,2.79-1.49,3.57,.46,1.06,2.12,1.59,3.34,2.39-.83,3.42,.28,4.38,3.82,3.67,1.04,1.22,1.76,2.84,2.65,2.94,1.26,.13,2.64-.86,3.56-1.21,1.35,.57,2.97,1.84,3.77,1.45,1.02-.51,1.37-2.35,1.75-3.1,1.57-.14,3.26,.17,4.18-.52,.77-.58,.64-2.35,.9-3.57Z"/><path d="M393.22,206.49c1.07-7.22,2.62-14.41,3.1-21.67,.59-8.96,1.05-18.05,.18-26.95-1.26-12.85-7.03-18.33-20.06-19.82-12.09-1.38-21.23-7.13-28.51-16.55-2.86-3.69-5.79-7.43-9.25-10.52-4.12-3.68-8.84-6.67-13.35-10,6.16-4.02,13.73-6.78,21.68-8.5,17.87-3.87,32.69,3.01,40.74,19.41,2.8,5.71,4.94,11.86,6.54,18.02,4.69,18.14,7.93,36.53,6.69,55.4-.37,5.59-.97,11.17-1.76,16.72-.63,4.41-1.17,4.64-5.99,4.47Zm-8.65-78.23c-5.27-9.99-13.28-16.81-24-20.45,9.33,5.26,17.38,11.99,24,20.45Z"/><path d="M551.7,161.54c8.25-2.31,11.88-9.12,15.58-15.92,6.8-12.49,17.53-18.5,31.58-18.3,7.81,.11,15.61,1.08,23.43,1.47,4.29,.21,8.6,.04,12.99,.04-.13,.29-.36,1.12-.81,1.8-5.98,9.05-11.25,18.7-18.17,26.96-10.79,12.88-24.99,16.53-41.17,11.47-7.72-2.41-15.4-4.94-23.43-7.52Zm47.75-13.53c-11.99-.68-23.63,2.75-26.9,9.4,7.37-5.7,11.76-7.27,26.9-9.4Z"/><path d="M205.75,424.5c-1.1-1.32-2.06-2.79-3.32-3.93-13.1-11.85-21.54-26.1-20.49-44.22,1.15-19.99,11.02-35.33,27.51-46.49,.15-.1,.43-.01,1.12-.01-13.18,12.15-22.39,26.18-23.55,44.3-1.2,18.63,7.42,32.76,21.22,44.86-.44-2.08-.93-3.77-1.14-5.49-1.87-15.25,13.47-23.91,26.78-18.08,11.04,4.83,14.96,15.95,8.64,25.21-1.09,1.59-2.61,3.05-4.23,4.1-4.03,2.61-6.73,1.75-8.98-2.49-.21-.39-.6-.68-.89-1-2.87,1.68-3.4,4.02-1.26,6.09,2.02,1.94,4.3,3.61,6.38,5.49,7.07,6.37,8.01,14.51,2.41,20.29-5.76,5.94-14.71,5.52-21.2-.98-.32-.32-.69-.61-.82,.08-4.23,1.33-8.38,3.42-12.69,3.81-6.92,.63-12.87-4.34-14.76-11.06-1.68-5.98,1-12.93,7.01-16.12,3.84-2.04,8.25-3.01,12.41-4.45-.48,1.04-.96,2.08-1.43,3.12l.73,.91c2.02-.63,4.11-1.09,6.04-1.93,4.02-1.75,5.35-1.16,6.39,3.11,.13,.54,.29,1.22,.68,1.53,4.58,3.57,4.85,7.61,1.48,12.14-.27,.36-.4,.85-.52,1.29-.7,2.58,1.06,5.16,3.83,5.61,2.64,.43,4.92-1.27,5.1-3.96,.13-1.95,.02-3.91,.02-5.95,3.63-1.22,3.8-1.92,.91-4.68-.93-.89-2.03-1.61-2.9-2.54-2.53-2.73-4.98-5.54-7.46-8.31l.8-1.03c1.15,.1,2.29,.2,3.37,.3-.53-3.29-1.21-6.59-1.52-9.93-.11-1.24,.6-3.64,1.04-3.66,2.44-.13,2.57-1.93,3.33-3.46,.32-.64,1.35-1.37,2-1.32,2.37,.2,4.06-1,3.69-3.01-.29-1.55-2.02-3.5-3.54-4.03-4.54-1.59-10.33,1.26-12.23,5.68-.84,1.95-1.3,4.08-1.95,6.17-.59-.99-1.15-1.94-1.94-3.27-2.74,2.62-2.71,5.59-1.48,8.16,1.24,2.58,3.41,4.72,4.87,6.66-2.99,.8-6.21,1.66-9.44,2.53Zm7.09,11.84c1.45-4.16-.34-6.51-3.2-6.66-2.47-.13-6.3,.9-7.23,2.64-1.14,2.13,1.28,4.68,3.97,5.77,.49,.2,1.08,.61,1.26,1.06,.79,2.03,1.25,4.22,2.24,6.14,.42,.81,2.43,1.78,2.67,1.56,1.87-1.76,3.83-3.59,5.07-5.78,1.23-2.17,1.14-4.69-1.26-6.67-.93,.51-1.81,1-3.51,1.94Z"/><path d="M562.77,79.84c-1.07-12.57,4.06-20.63,14.05-22.75,8.58-1.82,20.19,1.6,23.69,15.8,2.19,0,4.43-.36,6.5,.07,6.66,1.37,11.32,7,12.38,14.46,1.7,11.95-6.72,25.03-18.29,28.19-4.71,1.29-9.4,1.31-14.01-.92-1.04-.5-2.91-.16-4.01,.47-8.41,4.74-17.21,5.84-26.36,2.89-9.79-3.16-15.42-11.33-14.5-20.54,.83-8.3,9.33-16.26,18.61-17.42,.57-.07,1.13-.14,1.94-.24Zm25.16,17.93c4.24-6.56,6.42-13.06,5.66-20.35-.49-4.78-3.18-6.79-7.86-6.09-1.21,.18-2.51,.06-3.74-.13-6.27-.99-10.53,1.72-10.92,7.24-.57,8.14,3.99,13.89,9.18,19.91,1.03-2.69,1.83-4.77,2.77-7.24,.99,1.36,1.66,2.3,2.34,3.23,.75,1.01,1.5,2.01,2.56,3.42Zm-3.84,8.02c-3.05-1.37-5.95-2.66-8.85-3.96l.42-1.07c1.36,.21,2.72,.42,4.09,.64-3.46-4.85-7.23-9.13-11.36-13.03-2.5-2.36-5.71-3.18-9.03-1.32-2.18,1.22-6.02,11.48-4.98,13.72,.5,1.08,1.53,2.11,2.57,2.72,6.05,3.54,12.63,5.42,19.63,5.44,2.96,0,5.98-.59,7.5-3.14Zm2.63-.08c.45,.14,1.17,.5,1.91,.59,8.87,1.01,20.3-8.79,20.65-17.72,.04-.92,.19-2.11-.29-2.74-1.47-1.94-2.9-4.32-4.93-5.31-2.49-1.21-4.75,.7-6.04,2.96-2.75,4.83-5.31,9.76-8.05,14.86l3.46-.5c.22,.32,.45,.63,.67,.95-2.44,2.29-4.89,4.58-7.38,6.92Z"/><path d="M330.91,35.75c13.37-4.39,26.28-6.44,39.37-2.29,11.96,3.79,19.47,12.42,22.74,24.27,4.58,16.55,2.25,33.32,.1,50.05-.38-3.94-.57-7.9-1.18-11.8-1.23-7.77-5.84-12.95-13.52-14.2-15.25-2.48-25.03-11.51-31.96-24.63-4.04-7.64-8.13-15.29-15.54-21.4Zm57.88,42.89c-4.71-16.07-16-25.99-30.87-32.51,13.03,8.22,24.09,18.29,30.87,32.51Z"/><path d="M468.49,144.18c-4.08,9.09-7.91,17.95-12.03,26.66-2.29,4.84-4.66,9.72-7.71,14.09-5.27,7.55-13.19,11.1-21.92,13.4-6.16,1.62-12.12,3.98-18.17,6-.53,.18-1.09,.23-1.82,.37-1.03-10.14-.92-19.97,2.41-29.54,4.97-14.32,15.84-21.9,29.91-25.27,9.84-2.36,19.87-3.89,29.34-5.7Zm-52.73,44.43c6.71-6.14,13.36-12.22,20-18.31-8.02,4.58-15.1,10.17-20,18.31Z"/><path d="M516.12,97.53c8.62,7.57,17.1,14.56,25.06,22.12,8.04,7.64,11.88,17.29,10.85,28.49-1.11,12-5.85,20.87-16.07,23.84-5.42-5.17-10.59-9.96-15.6-14.92-9.3-9.21-11.33-20.72-9.52-33.04,1.29-8.73,3.43-17.34,5.28-26.49Zm13.79,37.07c2.67,8.75,5.26,17.25,7.79,25.55-.06-9.05-3.04-17.43-7.79-25.55Z"/><path d="M588.06,428.71c-5.15,.61-9.92,.11-14.11-3.54-.82-.71-3.08-.1-4.55,.33-6.23,1.82-12.23,1.59-17.94-1.71-6.77-3.92-9.85-10.39-8.48-17.7,1.17-6.25,7.24-11.93,14.03-13.13,12.46-2.2,20.85,4.71,21.05,17.37,.05,3.12,0,6.23,.56,9.43,.35-.78,.7-1.57,1.17-2.6,1.37,1.65,2.61,3.12,4.38,5.25,.88-2.47,1.7-4.31,2.18-6.24,.63-2.48,1.07-5.02,1.44-7.56,.43-2.96,.86-5.56-2.92-7.38-3.87-1.86-5.03-7.17-3.42-11.08,1.67-4.06,6.2-6.77,10.4-6.24,4.55,.58,8.19,4.06,8.72,8.33,.56,4.61-1.54,8.53-5.8,10.07-1.82,.65-2.32,1.6-2.82,3.37-1.67,5.89-3.71,11.68-5.87,18.32,1.93-.37,4-.25,5.46-1.14,17.72-10.7,29.7-25.47,30.47-46.92,.53-14.81-5.76-27.43-15.43-38.41-9.27-10.53-20.95-17.39-33.93-22.28-1.16-.44-2.32-.87-3.4-1.51,10.59,1.44,20.16,5.55,28.9,11.52,15.56,10.63,25.84,24.87,28.66,43.83,2.03,13.63-2.33,25.61-10.4,36.39-6.03,8.05-13.65,14.4-22.09,19.8-1.15,.74-2.18,1.67-3.26,2.52-1,.31-1.99,.61-2.99,.92Zm-21.75-11.77c3.61-2.82,6.14-.74,8.69,.67-.21-3.36-.66-6.39-.51-9.38,.23-4.56-2.01-8.82-6.03-10.29-2.45-.9-4.92-1.08-6.5,1.51-1.48,2.44-.8,4.46,1.27,6.49,2.05,2.02,3.59,4.57,4.98,6.39-3.81,4.37-6.95,7.97-10.17,11.67,5.58,1.15,10.91,.21,16.67-2.71-2.99-1.55-5.48-2.84-8.39-4.35Z"/><path d="M292.22,510.87c-12.25,.57-23.1,3.16-29.04,15.59,1.59,.58,2.87,1.05,4.14,1.51,8.27,2.98,14.3,10.6,14.36,18.13,.05,7.45-4.62,13.81-11.99,15.76-6.48,1.71-13.73,.41-17.37-6.83-.15-.29-.44-.51-.72-.82-1.39,.9-2.71,1.88-4.14,2.66-2.82,1.54-5.73,1.61-8.11-.69-2.45-2.36-2.29-5.44-.67-8.08,1.37-2.24,3.22-4.35,5.3-5.94,2.73-2.08,5.89-3.6,8.86-5.36l.58,.72c-2.51,2.25-5.08,4.43-7.5,6.77-2.99,2.9-2.43,5.63,1.37,7.16,2.23,.9,3.97,.56,5.2-1.87,1.79-3.53,3.85-6.93,5.93-10.63-.63-.39-1.32-1.02-2.13-1.27-3.25-.99-4.4-3.3-4.04-6.43,.39-3.39,3.12-6.21,6.62-6.1,2.72,.08,3.38-1.27,4.5-3.22,2.01-3.49,4.57-6.66,6.98-10.08-14.19-2.74-26.12-9.06-31.27-24-2.88-8.35-1.7-18.11,2.91-24.27-1.8,10.48-1.63,20.2,4.28,28.99,5.9,8.77,14.43,13.24,24.26,15.19-.8-2.81-1.6-5.61-2.53-8.86-.36-.07-1.24-.3-2.13-.42-4.7-.67-7.99-4.05-8.27-8.52-.32-5.02,2.41-9.15,6.93-10.53,4.67-1.42,9.67,.57,12.07,4.8,2.37,4.19,1.81,9.39-1.97,12.02-2.61,1.81-3.81,3.69-2.78,6.61,1.12,3.17,3.74,4.89,6.9,5.22,3,.32,6.14,.35,9.08-.23,2.45-.49,3.45,.21,4.37,3.03Zm-33.62,34.67c1.79,.66,3.14,1.22,4.53,1.66,.72,.23,1.61,.52,2.25,.29,6.19-2.2,7.49-5.67,4.7-11.69-.55-1.19-.49-2.66-.71-4,.27-.12,.54-.24,.8-.37-1.21-.77-2.43-1.55-4.33-2.76,.89,4.46,.31,7.66-3.54,9.21-3.69,1.48-3.88,4.48-3.7,7.66Z"/><path d="M387.88,208.55c-.19-1.49-.36-2.99-.58-4.48-.84-5.55-4.14-8.99-9.36-10.68-1.88-.61-3.8-1.14-5.74-1.5-9.21-1.74-15.56-7.1-19.65-15.34-1.09-2.19-1.96-4.49-3.06-6.68-3.32-6.62-6.7-13.21-9.9-19.5,11.19-.52,28.36,1.69,38.15,9.64,8.65,7.02,12.57,16.46,13.3,27.19,.41,6.02-.28,12.12-.66,18.17-.07,1.19-.98,2.32-1.5,3.48l-.98-.31Zm-17.96-36.37l1.28-1.27,12.25,12.87-1.04,1.04c-2.5-5.88-6.6-10.15-12.48-12.64Z"/><path d="M518.9,493.51c1.22-1.57,2.51-2.69,2.94-4.06,.16-.52-1.53-2.07-2.62-2.42-2.33-.75-4.43,0-5.63,2.3-1.29,2.49-.14,5.68,2.62,7.59,6.59,4.56,16.29-.43,17.61-9.06,1.2-7.83-2.98-13.58-10.98-15.12-7.5-1.44-15.64,2.39-20.01,9.4-4.32,6.94-4.18,15.7,.69,21.66,5.76,7.04,13.68,8.37,21.97,6.76,16.7-3.26,25.26-14.88,29.3-30.42,2.75-10.58,1.18-20.86-3.46-30.7-.42-.9-.82-1.81-1.01-2.8,5.95,6.89,8.85,15.09,9.25,23.98,.67,14.81-3.46,28.1-14.86,38.17-10.36,9.15-22.5,11.63-35.62,7.19-11.04-3.74-17.97-15.04-16.6-26.05,1.54-12.46,11.34-22.79,23-23.84,3.42-.31,7.07-.19,10.38,.65,8.59,2.18,14.1,8.95,14.17,16.59,.07,7.57-6.08,15.42-14.1,17.77-4.64,1.36-9.26,1.46-13.43-1.53-4.07-2.91-5.13-7.69-2.68-11.73,2.34-3.88,7.94-5.66,11.99-3.82,3.01,1.37,4.49,4.57,3.5,7.52-1.14,3.39-4.47,4.13-6.44,1.98Z"/><path d="M621.97,188.38c4.08-2.35,7.63-5.23,11.69-6.54,7.71-2.5,14.68,3.94,12.56,11.13-1.2,4.08-4.41,6.42-8.33,7.2-3.75,.75-5.59,2.6-6.96,6.16-2.87,7.5-8.03,12.85-16.43,14.06-5.55,.8-10.77-.38-14.06-5.1-3.18-4.56-6.99-6.54-12.41-5.83-.92,.12-1.91-.26-2.87-.4-.02-.36-.04-.73-.07-1.09,2.73-.44,5.46-.88,8.4-1.36-1.24-5.6-1.19-11.1,2.23-15.54,2.32-3.01,5.56-5.8,8.99-7.35,7.09-3.22,13.32-1.02,17.26,4.66Zm-5.29,6.14c.07-.78,.06-1.14,.14-1.47,.56-2.58-.46-4.71-2.85-5.24-1.77-.39-4.12,.03-5.68,.97-2.16,1.29-1.82,3.78-.57,5.62,2.12,3.12,4.3,6.28,6.96,8.91,2.13,2.12,5.9,.24,6.28-2.8,.4-3.19-1.25-5.05-4.27-5.99Zm11.69,3.98c1.03-.34,2.93-.62,4.44-1.55,2.38-1.46,3-3.99,1.74-6.38-1.3-2.47-3.67-1.64-5.49-.61-1.99,1.13-3.84,2.59-5.56,4.13-1.83,1.64-1.39,3.36,.94,4.04,.98,.29,2.07,.21,3.93,.36Z"/><path d="M145.84,251.65c7.55,.55,14.19-3.02,20.92-5.67-.41-2.25-1.03-4.26-1.1-6.28-.13-4.15,2.55-7.71,6.45-9.04,3.78-1.29,7.98-.26,10.35,3.01,1.21,1.66,2.21,1.64,4.04,1.3,6.16-1.17,12.38-2.04,18.6-2.88,1.32-.18,2.72,.3,5.03,.6-6.9,1.79-12.84,3.29-18.76,4.88-3.47,.93-6.26,2.09-7.81,6.22-2.23,5.95-8.79,6.86-15.57,2.94-1.08,.81-2.18,1.66-3.31,2.46-4.84,3.4-5.35,6.21-1.47,10.88,2.86,3.43,4.17,7.2,3.89,11.59-10.54,2.2-16.96-4.94-14.28-16.21-1.41,.2-2.74,.46-4.07,.57-2.35,.19-3.86,1.04-5.03,3.43-2.55,5.2-8.6,7.69-14.22,6.43-5.78-1.29-10.02-6.21-10.44-12.1-.44-6.24,2.96-11.68,8.64-13.81,5.49-2.07,11.29-.54,14.65,4.28,1.49,2.13,2.27,4.76,3.48,7.41Z"/><path d="M434.58,57.57c2.25,10.43,4.03,20.39,1.61,30.62-2.16,9.14-7.25,16.01-16.49,18.25-16.84,4.08-18.72,16.85-17.73,28.91,.29,3.6,.64,7.19,.2,10.91-.48-2.93-1.15-5.84-1.41-8.79-1.3-14.65-1.07-29.21,3.21-43.45,2.73-9.07,7.7-16.75,14.82-22.98,5.08-4.45,10.27-8.77,15.79-13.47Zm-13.32,30.16c-4.63,3.71-9.15,7.62-11.15,13.72,3.81-4.69,7.48-9.21,11.15-13.72Z"/><path d="M463.11,535.29c.18-.14,.34-.32,.54-.42,3.93-2.16,5.35-5.51,3.6-8.54-1.78-3.07-6.55-3.89-9.96-1.7-3.67,2.36-5.39,7.05-4.18,11.4,1.17,4.2,5.54,7.64,10.14,7.98,10.06,.72,19.03-10.49,16.87-21.08-2.88-14.12-19.25-20.65-32.19-12.86-11.4,6.87-15.62,21.31-9.86,33.79,.48,1.05,1.03,2.07,1.04,3.76-1.6-1.29-3.45-2.36-4.76-3.89-6.16-7.2-6.66-15.47-3.75-24.06,4.06-11.98,15.76-20.33,27.39-19.84,12.46,.52,23,8.82,26.25,20.67,2.8,10.23-1.59,22.05-10.18,27.4-6.82,4.25-15.67,3.6-21.91-1.6-6.08-5.07-8.08-12.16-5.41-19.2,3.37-8.89,13.97-12.7,21.25-7.55,3.26,2.31,5.16,5.53,4.54,9.63-.5,3.36-2.46,5.8-5.93,6.62-1.05,.25-2.18,.17-3.27,.24-.07-.25-.13-.5-.2-.75Z"/><path d="M406.81,169.83c.66-13.87,1.5-27.72,5.97-41.03,2.49-7.42,7.65-12.32,14.65-15.64,6.91-3.28,13.64-6.95,20.52-10.49,.67,11.8,.25,24.15-9.49,33.6-3.17,3.08-7.85,5.12-12.21,6.34-7.55,2.12-12.57,6.21-14.8,13.8-1.34,4.54-3.08,8.95-4.64,13.43Z"/><path d="M588.06,428.71c1-.31,1.99-.61,2.99-.92,3.07-.34,6.13-.68,9.01-1,1.78-2.47,3.29-5.52,5.69-7.52,1.44-1.2,4.4-1.33,6.41-.84,1.36,.33,2.51,2.45,3.23,4.01,.33,.72-.5,2.1-1.09,2.99-.12,.19-1.51-.68-2.32-.69-1.73-.02-3.56-.11-5.15,.43-1.47,.5-2.67,1.78-4.39,3,4.78,3.44,8.26,7.79,7.57,13.51-.43,3.59-2.09,7.56-4.44,10.3-5.73,6.67-13.58,6.38-21.63-.23-.98,.86-2,1.77-3.03,2.67-3.32,2.9-7.81,3.4-11.37,1.26-3.48-2.09-5.09-6.06-4.39-10.26,.75-4.47,3.24-7.76,6.86-10.16,2.97-1.97,6.18-3.58,9.69-4.69-.85,.64-1.71,1.28-2.55,1.94-4.92,3.87-6.18,7.2-4.16,13.03,.45,1.3,2.61,2.55,4.12,2.75,1.07,.15,3.07-1.26,3.46-2.39,.75-2.17,1.47-4.6-.96-6.73-.73-.64-.66-3.31,.08-4.25,1.81-2.32,4.21-4.17,6.38-6.21Zm14.42,4.32c-.55-.68-1.42-2.74-2.81-3.2-1.39-.47-4.05,.12-4.86,1.21-1.72,2.29-3.57,2.54-6.16,2.72-1.69,.12-3.43,1.98-4.77,3.42-.45,.49,0,2.83,.51,3.01,1.72,.62,3.65,.69,5.51,.9,.86,.1,1.74,.02,2.6,.07,4.52,.26,10.01-2.96,9.98-8.12Z"/><path d="M371.84,519.39c-1.47-2.7-2.64-5.35-4.24-7.7-9.49-13.98-23.44-20.99-39.4-24.55-11.04-2.46-22.18-2.95-33.48-.13,7.07-8.07,28.2-12.89,47.85-4.79,17.19,7.09,30.66,23.9,29.26,37.17Z"/><path d="M411.67,43.26c-1.02,14.92-3.63,24.31-9.06,31.59,.75-5.43,1.63-10.48,2.08-15.56,.43-4.88,.52-9.8,.46-14.69-.01-.98-1.21-2.33-2.21-2.83-5.66-2.88-7.83-9.08-4.87-14.45,3.14-5.69,10.84-7.56,16.45-4.01,5.25,3.33,6.89,10.13,3.25,14.92-1.41,1.86-3.67,3.07-6.1,5.03Z"/><path d="M163.77,388.5c-1.45-.42-2.55-.82-3.69-.98-.16-.02-.86,1.45-.67,1.66,.88,.97,1.85,2.17,3.01,2.49,3.79,1.04,7.03-2.64,6.3-6.92-.64-3.75-3.84-6.69-7.68-7.08-4.18-.42-8.09,2.31-9.57,6.69-2.78,8.24,4.14,18.37,13.44,19.85,6.39,1.02,12.22-.54,17.94-3.66,.56,1.09,1.03,1.99,1.48,2.86-11.14,7.43-24.4,6.73-32.11-1.78-5.2-5.73-6.8-12.44-4.04-19.8,2.25-5.99,8.94-9.24,15.21-7.71,5.79,1.42,9.7,6.8,9.26,12.77-.47,6.37-7.05,10.55-12.64,8.02-2.84-1.28-4.37-4.5-3.62-7.58,.61-2.52,2.21-3.74,4.81-3.63,3.07,.13,3.97,1.87,2.59,4.81Z"/><path d="M628.77,244.67c.62,2.17,.73,4.67,1.95,6.37,1.92,2.69,4.24,2.46,6.56,.06,3.75-3.87,8.78-4.55,13.04-1.75,3.8,2.49,5.35,7.44,3.67,11.75-1.79,4.59-5.78,6.81-10.97,6.08-4.43-.62-7.72-4.62-7.98-9.72-.03-.68,0-1.36,0-2.7-3.59,.76-6.82,1.66-10.11,2.05-2.11,.25-4.42,.11-6.43-.51-1.57-.48-2.75-1.99-.67-3.86,.4,.63,.64,1.53,1.13,1.69,1.37,.46,2.9,.95,4.25,.72,.56-.09,1.17-1.95,1.18-3.02,.05-4.55,1.03-6.09,4.37-7.17Z"/><path d="M419.88,492.14c7.93-16.07,29.65-24.27,45.54-17.55,4.99,2.11,8.86,5.53,11.61,11.08-20.61-10.56-38.83-3.84-57.15,6.46Z"/><path d="M385.13,429.27c1.4,4.73,4.94,8.86,3.58,14.16-1.74-4.08-3.33-8.09-5.2-11.96-.44-.9-1.75-1.78-2.77-1.93-5.4-.77-9.09-4.51-9.23-9.66-.14-5.36,3.53-9.98,8.56-10.77,5.62-.88,10.49,1.99,12.08,7.11,1.57,5.05-.76,10.2-5.66,12.48-.4,.19-.81,.35-1.36,.58Z"/><path d="M305.04,502.04c13.23-6.69,25.57-5.96,37.52,.54,10.45,5.68,17.7,13.91,18.17,27.27-12.6-21.39-31.96-27.91-55.69-27.81Z"/><path d="M434.64,495.06c-12.55,11.73-21.94,24.51-16.25,42.97-6.74-4.66-9.29-15.65-6.05-25.55,3.1-9.46,13.25-17.54,22.29-17.41Z"/><path d="M309.43,516.1c7.83-4.45,15.79-4.17,23.53-.12,7.92,4.15,13.11,10.38,13.03,21.05-4.66-6.65-9.8-11.49-16.22-14.92-6.38-3.41-13.13-5.29-20.35-6.02Z"/><path d="M576.39,229.86c.88-3.66,2.74-3.9,5.77-2.95,13.93,4.36,28.19,7.25,42.73,8.69,1.14,.11,2.24,.5,3.32,1-18,3.12-34.93-1.5-51.81-6.74Z"/><path d="M562.32,307.06c10.44-6.01,35.08-3.66,42.63,11.85-6.58-2.63-13.35-6-20.51-8-7.22-2.01-14.82-2.64-22.12-3.85Z"/><path d="M395.98,438.8c1.05-11.91,.03-23.29-3.73-34.46-.46-1.36,.71-3.27,1.12-4.93,1.55,.79,3.97,1.22,4.48,2.44,1.49,3.58,2.78,7.42,3.14,11.25,.76,8.02-1.34,15.74-3.78,23.32-.27,.84-.81,1.58-1.23,2.37Z"/><path d="M221.46,319.13c-12.93,2.51-23.4,9.29-32.66,18.55-1.01-4.94,1.19-9.87,6.38-13.95,7.87-6.19,16.76-7.25,26.28-4.59Z"/><path d="M331.57,190.69c1.03,4.3,1.67,8.49,3.07,12.4,1.35,3.77,3.47,7.27,5.27,10.92-6.74,1.19-11.62-2.37-13.73-9.84-1.67-5.92,.58-11.63,5.39-13.49Z"/><path d="M362.01,224.34c-.88-1.51-1.79-3-2.64-4.53-3.24-5.74-4.23-11.81-2.03-18.08,.48-1.38,2.44-3.4,3.32-3.22,1.43,.3,2.69,2.06,3.71,3.43,.56,.76,.73,2.01,.67,3.02-.35,6.01-.82,12.01-1.24,18.02-.59,.45-1.19,.91-1.78,1.36Z"/><path d="M351.51,216.5c-3.34,.41-5.25-1.3-6.71-3.43-3.94-5.75-4.41-12.1-2.69-18.7,.23-.87,.7-1.91,1.39-2.36,1.07-.7,2.63-1.57,3.61-1.24,.92,.31,1.85,2.05,1.9,3.2,.18,4.5-.29,9.03,.08,13.5,.25,2.95,1.52,5.81,2.42,9.02Z"/><path d="M634.92,379c.19,4.81,.35,8.98,5.3,10.6,4.12,1.35,9.34-1.91,9.43-6.2,.03-1.28-.82-3.02-1.84-3.75-.85-.61-2.7-.41-3.81,.09-1.2,.54-2.55,1.74-.1,2.9,.51,.24,1.03,1.77,.79,2.04-.51,.58-1.75,1.2-2.27,.94-1.02-.49-2.56-1.7-2.46-2.39,.3-2.02,.77-4.9,2.16-5.68,1.93-1.08,5.15-1.38,7.09-.46,1.77,.83,3.22,3.59,3.66,5.74,.72,3.5-2.6,7.68-6.59,9.39-3.66,1.57-7.94,.9-10.43-1.63-2.67-2.72-3.16-7.05-.94-11.58Z"/><path d="M640.9,374.19c4.46-5.24,13.47-3.37,17.04,3.22,3.68,6.8,1.31,14.93-5.87,18.92-6.66,3.7-13.5,3.4-20.52,.12,4.5,0,8.73,.36,12.88-.08,7.01-.74,12.27-6.36,12.37-12.57,.13-7.62-5.98-12.35-13.32-10.33-.76,.21-1.52,.43-2.57,.72Z"/><path d="M325.48,215.77c-3.12,3.58-6.15,2.18-10.52-2.64-4.01-4.42-3.25-9.96,1.24-13.85,3.03,5.38,6.08,10.8,9.28,16.49Z"/><path d="M596.48,353.64c-4.36-9.42-9.98-16.68-17.73-22.65,10.58-2.09,20.04,9.73,17.73,22.65Z"/><path d="M242.51,170.67c-12.31-4.29-21-21.33-16.58-29.49,2.27,11.93,8.64,21.12,16.58,29.49Z"/><path d="M402.24,431.69c.44-5.51,1.52-11.59,5.36-16.84,.81-1.11,1.79-2.39,2.98-2.87,1.5-.59,3.3-.43,4.97-.6-.43,1.54-.47,3.36-1.34,4.57-3.96,5.47-8.16,10.76-11.97,15.73Z"/><path d="M580.82,220.56c1.43-5.22,2.76-6.46,6.18-6.07,4.58,.52,8.3,4.88,8.48,10.28-4.9-1.41-9.7-2.78-14.67-4.21Z"/><path d="M567.75,122.36c4.02,10.03-4.97,29.06-13.39,34.14,6.85-10.21,11.54-21.26,13.39-34.14Z"/><path d="M317.46,222.55c-2,2.71-3.43,4.65-4.95,6.7-1.87-2.02-3.83-3.81-5.35-5.92-.67-.92-.92-2.71-.46-3.69,.35-.76,2.35-1.48,3.18-1.15,2.57,1.04,4.92,2.59,7.58,4.06Z"/><path d="M241.04,130.81c6.23,4.63,5.48,15.83-2.27,21.09,.8-3.7,1.83-7.06,2.19-10.5,.37-3.54,.08-7.15,.08-10.6Z"/><path d="M304.88,395.66c-2.55-2.83-5.19-5.6-7.62-8.54-.78-.94-1.42-2.34-1.38-3.51,.05-1.15,1.04-2.27,1.62-3.4,.99,.65,2.48,1.07,2.87,1.97,1.82,4.24,3.33,8.61,4.95,12.93l-.44,.54Z"/><path d="M305.68,246.48c-.63-5.02-1.23-9-1.56-13.01-.07-.9,.77-2.63,1.3-2.67,1.07-.09,2.71,.42,3.2,1.23,.71,1.18,1.09,2.98,.74,4.28-.86,3.18-2.21,6.22-3.69,10.18Z"/><path d="M314.16,398.23c-2.73-2.85-5.52-5.65-8.13-8.6-.62-.7-.97-1.99-.83-2.92,.14-.97,.84-2.34,1.61-2.6,.64-.22,2.18,.7,2.56,1.48,.96,1.95,1.35,4.18,2.23,6.18,.88,1.99,2.08,3.83,3.13,5.74l-.57,.72Z"/><path d="M600.37,367.8c-1.91-3.5-3.9-7.15-5.69-10.42,5.22,.39,8.54,6.02,5.69,10.42Z"/><path d="M467.07,198.04c-2.19,3.86-4.58,3.55-7.06,2.32-.62-.31-1.54-1.33-1.43-1.55,.38-.72,1.19-1.73,1.8-1.71,2.09,.08,4.17,.55,6.68,.94Z"/><path d="M591.78,371.35c-.55-3.45-1.08-6.72-1.58-9.85,3.85,2.45,4.59,6.65,1.58,9.85Z"/><path d="M454.33,207.4c1.81-4.55,3.89-5.21,8.85-2.62-3.13,.93-5.74,1.7-8.85,2.62Z"/><path d="M463.23,191.41c.61-.72,1-1.27,1.49-1.72,.74-.69,1.55-1.31,2.54-2.14,.44,1.35,.81,2.4,1.12,3.47,.28,.97,.5,1.96,.87,3.44-2.21-1.12-3.98-2.02-6.02-3.06Z"/><path d="M523.14,479.04h-10.16c2.95-2.64,6.67-2.63,10.16,0Z"/><path d="M212.67,111.17c-.28,2.1-1.91,3.6-4.59,3.59-2.7-.01-4.39-1.52-4.48-4.34-.07-2.56,2.17-4.79,4.62-4.79,2.46,0,4.55,2.28,4.45,5.54Z"/></svg>