<?xml version="1.0" encoding="iso-8859-1"?>
<!-- Uploaded to: SVG Repo, www.svgrepo.com, Generator: SVG Repo Mixer Tools -->
<!DOCTYPE svg PUBLIC "-//W3C//DTD SVG 1.1//EN" "http://www.w3.org/Graphics/SVG/1.1/DTD/svg11.dtd">
<svg fill="red" version="1.1" id="Capa_1" xmlns="http://www.w3.org/2000/svg" xmlns:xlink="http://www.w3.org/1999/xlink"
	width="800px" height="800px" viewBox="0 0 45.802 45.802" xml:space="preserve">
	<g>
		<g>
			<g>
				<path d="M14.865,29.547c-1.24,0.896-1.514,2.63-0.615,3.869c0.898,1.236,2.631,1.514,3.87,0.614
				c1.238-0.899,3.72-4.233,2.822-5.473C20.042,27.32,16.102,28.646,14.865,29.547z" />
				<path d="M6.779,37.457c-1.237-0.898-5.177-2.227-6.076-0.988c-0.899,1.239,1.583,4.574,2.822,5.474
				c1.239,0.897,2.971,0.623,3.87-0.615C8.293,40.089,8.02,38.357,6.779,37.457z" />
				<path d="M9.335,22.568v21.724c0,0.835,0.665,1.51,1.5,1.51c0.834,0,1.499-0.675,1.499-1.51V22.568
				c-0.456,0.141-0.979,0.217-1.499,0.217C10.314,22.785,9.792,22.709,9.335,22.568z" />
				<path d="M10.821,5.663c-2.604,0-4.722,2.118-4.722,4.722c0,2.605,2.118,4.724,4.722,4.724c2.604,0,4.722-2.118,4.722-4.724
				C15.544,7.781,13.426,5.663,10.821,5.663z" />
				<path d="M18.72,7.114c0.735-1.294,0.55-2.97-0.555-4.073c-0.662-0.662-1.53-0.993-2.398-0.993c-0.579,0-1.156,0.146-1.674,0.439
				C13.698,1.053,12.382,0,10.821,0c-1.56,0-2.875,1.053-3.271,2.487C7.034,2.194,6.456,2.048,5.878,2.048
				c-0.869,0-1.738,0.331-2.4,0.993C2.375,4.145,2.189,5.82,2.923,7.114C1.49,7.51,0.436,8.826,0.436,10.385
				c0,1.559,1.054,2.875,2.488,3.271c-0.734,1.295-0.55,2.971,0.555,4.073c0.662,0.662,1.531,0.992,2.4,0.992
				c0.577,0,1.155-0.146,1.672-0.438c0.396,1.435,1.711,2.488,3.271,2.488c1.561,0,2.875-1.054,3.271-2.488
				c0.518,0.293,1.095,0.441,1.673,0.441c0.869,0,1.737-0.332,2.399-0.995c1.104-1.103,1.29-2.778,0.555-4.073
				c1.435-0.396,2.488-1.711,2.488-3.271C21.208,8.825,20.154,7.511,18.72,7.114z M10.821,16.468c-3.354,0-6.082-2.729-6.082-6.083
				c0-3.352,2.728-6.081,6.082-6.081c3.354,0,6.082,2.729,6.082,6.081C16.903,13.738,14.176,16.468,10.821,16.468z" />
				<path d="M39.024,35.587c-1.24,0.897-1.515,2.63-0.616,3.869c0.898,1.237,2.631,1.514,3.87,0.614
				c1.237-0.899,3.723-4.233,2.822-5.472C44.2,33.359,40.262,34.688,39.024,35.587z" />
				<path d="M30.939,39.28c-1.237-0.899-5.178-2.227-6.076-0.988c-0.897,1.238,1.584,4.573,2.822,5.472
				c1.238,0.899,2.971,0.623,3.869-0.614C32.453,41.911,32.18,40.18,30.939,39.28z" />
				<path d="M33.455,34.646v9.646c0,0.835,0.698,1.51,1.532,1.51s1.532-0.675,1.532-1.51v-9.646
				c-0.521,0.143-1.012,0.218-1.532,0.218C34.468,34.864,33.977,34.789,33.455,34.646z" />
				<path d="M39.926,30.803c0.869,0,1.735-0.33,2.398-0.992c1.104-1.104,1.288-2.777,0.555-4.073
				c1.435-0.396,2.487-1.711,2.487-3.271c0-1.561-1.054-2.876-2.487-3.272c0.733-1.295,0.551-2.969-0.555-4.072
				c-0.663-0.662-1.529-0.993-2.398-0.993c-0.578,0-1.156,0.145-1.674,0.438c-0.396-1.433-1.709-2.486-3.271-2.486
				c-1.56,0-2.875,1.054-3.271,2.486c-0.519-0.294-1.097-0.438-1.673-0.438c-0.868,0-1.737,0.331-2.399,0.993
				c-1.104,1.104-1.289,2.777-0.555,4.072c-1.436,0.396-2.488,1.712-2.488,3.272c0,1.561,1.054,2.875,2.488,3.271
				c-0.734,1.296-0.551,2.97,0.555,4.071c0.662,0.664,1.531,0.994,2.399,0.994c0.577,0,1.154-0.146,1.673-0.438
				c0.396,1.434,1.711,2.486,3.271,2.486c1.561,0,2.876-1.055,3.271-2.486C38.771,30.656,39.348,30.803,39.926,30.803z
				 M34.981,28.548c-3.353,0-6.081-2.729-6.081-6.083c0-3.353,2.729-6.082,6.081-6.082c3.354,0,6.082,2.729,6.082,6.082
				C41.063,25.818,38.336,28.548,34.981,28.548z" />
				<path d="M34.981,17.743c-2.604,0-4.722,2.118-4.722,4.722c0,2.604,2.117,4.724,4.722,4.724c2.605,0,4.724-2.117,4.724-4.724
				C39.703,19.861,37.586,17.743,34.981,17.743z" />
			</g>
		</g>
	</g>
</svg>